BoldCondensed.ufo
<glyph name="exclam" format="1">
  <advance width="231"/>
  <unicode hex="0021"/>
  <outline>
    <contour>
      <point x="232" y="709" type="line"/>
      <point x="-1" y="709" type="line"/>
      <point x="31" y="298" type="line"/>
      <point x="201" y="298" type="line"/>
    </contour>
    <contour>
      <point x="14" y="177" type="line"/>
      <point x="14" y="0" type="line"/>
      <point x="218" y="0" type="line"/>
      <point x="218" y="177" type="line"/>
    </contour>
  </outline>
</glyph>
<glyph name="numbersign" format="1">
  <advance width="487"/>
  <unicode hex="0023"/>
  <outline>
    <contour>
      <point x="241" y="175" type="line"/>
      <point x="218" y="0" type="line"/>
      <point x="347" y="0" type="line"/>
      <point x="370" y="175" type="line"/>
      <point x="441" y="175" type="line"/>
      <point x="459" y="303" type="line"/>
      <point x="387" y="303" type="line"/>
      <point x="401" y="404" type="line"/>
      <point x="472" y="404" type="line"/>
      <point x="489" y="532" type="line"/>
      <point x="418" y="532" type="line"/>
      <point x="441" y="705" type="line"/>
      <point x="312" y="705" type="line"/>
      <point x="289" y="532" type="line"/>
      <point x="246" y="532" type="line"/>
      <point x="269" y="705" type="line"/>
      <point x="140" y="705" type="line"/>
      <point x="117" y="532" type="line"/>
      <point x="46" y="532" type="line"/>
      <point x="29" y="404" type="line"/>
      <point x="100" y="404" type="line"/>
      <point x="86" y="303" type="line"/>
      <point x="16" y="303" type="line"/>
      <point x="-2" y="175" type="line"/>
      <point x="69" y="175" type="line"/>
      <point x="46" y="0" type="line"/>
      <point x="175" y="0" type="line"/>
      <point x="198" y="175" type="line"/>
    </contour>
    <contour>
      <point x="258" y="303" type="line"/>
      <point x="215" y="303" type="line"/>
      <point x="229" y="404" type="line"/>
      <point x="272" y="404" type="line"/>
    </contour>
  </outline>
</glyph>
<glyph name="dollar" format="1">
  <advance width="486"/>
  <unicode hex="0024"/>
  <outline>
    <contour>
      <point x="280" y="548" type="line"/>
      <point x="292" y="541"/>
      <point x="296" y="520"/>
      <point x="295" y="480" type="curve"/>
      <point x="462" y="480" type="line"/>
      <point x="464" y="567"/>
      <point x="440" y="657"/>
      <point x="280" y="674" type="curve"/>
      <point x="280" y="753" type="line"/>
      <point x="207" y="753" type="line"/>
      <point x="207" y="676" type="line"/>
      <point x="73" y="667"/>
      <point x="4" y="594"/>
      <point x="4" y="486" type="curve" smooth="yes"/>
      <point x="4" y="351"/>
      <point x="104" y="303"/>
      <point x="207" y="257" type="curve"/>
      <point x="207" y="143" type="line"/>
      <point x="186" y="151"/>
      <point x="180" y="178"/>
      <point x="180" y="224" type="curve"/>
      <point x="3" y="225" type="line"/>
      <point x="2" y="106"/>
      <point x="52" y="28"/>
      <point x="207" y="16" type="curve"/>
      <point x="207" y="-69" type="line"/>
      <point x="280" y="-69" type="line"/>
      <point x="280" y="15" type="line"/>
      <point x="381" y="24"/>
      <point x="489" y="70"/>
      <point x="489" y="217" type="curve" smooth="yes"/>
      <point x="489" y="341"/>
      <point x="376" y="390"/>
      <point x="280" y="433" type="curve"/>
    </contour>
    <contour>
      <point x="207" y="467" type="line"/>
      <point x="195" y="477"/>
      <point x="191" y="492"/>
      <point x="191" y="510" type="curve" smooth="yes"/>
      <point x="191" y="525"/>
      <point x="197" y="541"/>
      <point x="207" y="548" type="curve"/>
    </contour>
    <contour>
      <point x="280" y="226" type="line"/>
      <point x="292" y="218"/>
      <point x="300" y="206"/>
      <point x="300" y="183" type="curve" smooth="yes"/>
      <point x="300" y="161"/>
      <point x="294" y="147"/>
      <point x="280" y="143" type="curve"/>
    </contour>
  </outline>
</glyph>
<glyph name="percent" format="1">
  <advance width="770"/>
  <unicode hex="0025"/>
  <outline>
    <contour>
      <point x="352" y="521" type="line"/>
      <point x="352" y="659"/>
      <point x="267" y="705"/>
      <point x="176" y="705" type="curve" smooth="yes"/>
      <point x="86" y="705"/>
      <point x="1" y="659"/>
      <point x="1" y="521" type="curve" smooth="yes"/>
      <point x="1" y="383"/>
      <point x="93" y="338"/>
      <point x="176" y="338" type="curve" smooth="yes"/>
      <point x="258" y="338"/>
      <point x="352" y="381"/>
      <point x="352" y="520" type="curve"/>
    </contour>
    <contour>
      <point x="622" y="692" type="line"/>
      <point x="464" y="692" type="line"/>
      <point x="147" y="-1" type="line"/>
      <point x="305" y="-1" type="line"/>
    </contour>
    <contour>
      <point x="176" y="445" type="line"/>
      <point x="166" y="445"/>
      <point x="168" y="471"/>
      <point x="168" y="522" type="curve" smooth="yes"/>
      <point x="168" y="571"/>
      <point x="166" y="598"/>
      <point x="176" y="598" type="curve" smooth="yes"/>
      <point x="187" y="598"/>
      <point x="185" y="571"/>
      <point x="185" y="522" type="curve" smooth="yes"/>
      <point x="185" y="471"/>
      <point x="186" y="445"/>
      <point x="177" y="445" type="curve"/>
    </contour>
    <contour>
      <point x="769" y="169" type="line"/>
      <point x="769" y="307"/>
      <point x="684" y="353"/>
      <point x="594" y="353" type="curve" smooth="yes"/>
      <point x="503" y="353"/>
      <point x="419" y="307"/>
      <point x="419" y="169" type="curve" smooth="yes"/>
      <point x="419" y="31"/>
      <point x="510" y="-14"/>
      <point x="594" y="-14" type="curve" smooth="yes"/>
      <point x="675" y="-14"/>
      <point x="769" y="29"/>
      <point x="769" y="168" type="curve"/>
    </contour>
    <contour>
      <point x="594" y="93" type="line"/>
      <point x="583" y="93"/>
      <point x="585" y="119"/>
      <point x="585" y="170" type="curve" smooth="yes"/>
      <point x="585" y="219"/>
      <point x="583" y="246"/>
      <point x="594" y="246" type="curve" smooth="yes"/>
      <point x="604" y="246"/>
      <point x="602" y="219"/>
      <point x="602" y="170" type="curve" smooth="yes"/>
      <point x="602" y="119"/>
      <point x="604" y="93"/>
      <point x="595" y="93" type="curve"/>
    </contour>
  </outline>
</glyph>
<glyph name="ampersand" format="1">
  <advance width="525"/>
  <unicode hex="0026"/>
  <outline>
    <contour>
      <point x="543" y="0" type="line"/>
      <point x="516" y="43"/>
      <point x="489" y="87"/>
      <point x="460" y="131" type="curve"/>
      <point x="500" y="181"/>
      <point x="533" y="248"/>
      <point x="533" y="358" type="curve"/>
      <point x="381" y="358" type="line"/>
      <point x="381" y="317"/>
      <point x="377" y="297"/>
      <point x="372" y="275" type="curve"/>
      <point x="357" y="297"/>
      <point x="344" y="317"/>
      <point x="330" y="339" type="curve"/>
      <point x="396" y="392"/>
      <point x="431" y="442"/>
      <point x="431" y="518" type="curve" smooth="yes"/>
      <point x="431" y="640"/>
      <point x="316" y="674"/>
      <point x="257" y="674" type="curve" smooth="yes"/>
      <point x="120" y="674"/>
      <point x="61" y="593"/>
      <point x="61" y="515" type="curve" smooth="yes"/>
      <point x="61" y="450"/>
      <point x="82" y="410"/>
      <point x="124" y="352" type="curve"/>
      <point x="53" y="309"/>
      <point x="7" y="253"/>
      <point x="7" y="168" type="curve" smooth="yes"/>
      <point x="7" y="74"/>
      <point x="64" y="-14"/>
      <point x="195" y="-14" type="curve" smooth="yes"/>
      <point x="275" y="-14"/>
      <point x="303" y="3"/>
      <point x="331" y="18" type="curve"/>
      <point x="333" y="18" type="line"/>
      <point x="337" y="12"/>
      <point x="341" y="6"/>
      <point x="345" y="0" type="curve"/>
    </contour>
    <contour>
      <point x="239" y="518" type="line"/>
      <point x="239" y="542"/>
      <point x="245" y="553"/>
      <point x="258" y="553" type="curve" smooth="yes"/>
      <point x="269" y="553"/>
      <point x="276" y="538"/>
      <point x="276" y="517" type="curve" smooth="yes"/>
      <point x="276" y="493"/>
      <point x="266" y="464"/>
      <point x="259" y="456" type="curve"/>
      <point x="246" y="477"/>
      <point x="239" y="496"/>
      <point x="239" y="517" type="curve"/>
    </contour>
    <contour>
      <point x="204" y="159" type="line"/>
      <point x="204" y="184"/>
      <point x="209" y="196"/>
      <point x="213" y="203" type="curve"/>
      <point x="233" y="167"/>
      <point x="247" y="145"/>
      <point x="263" y="118" type="curve"/>
      <point x="256" y="113"/>
      <point x="250" y="110"/>
      <point x="236" y="110" type="curve" smooth="yes"/>
      <point x="216" y="110"/>
      <point x="204" y="131"/>
      <point x="204" y="158" type="curve"/>
    </contour>
  </outline>
</glyph>
<glyph name="parenleft" format="1">
  <advance width="276"/>
  <unicode hex="0028"/>
  <outline>
    <contour>
      <point x="306" y="-70" type="line"/>
      <point x="277" y="-33"/>
      <point x="257" y="-1"/>
      <point x="246" y="51" type="curve" smooth="yes"/>
      <point x="236" y="103"/>
      <point x="232" y="175"/>
      <point x="232" y="291" type="curve" smooth="yes"/>
      <point x="232" y="407"/>
      <point x="236" y="479"/>
      <point x="246" y="531" type="curve" smooth="yes"/>
      <point x="257" y="583"/>
      <point x="277" y="615"/>
      <point x="306" y="652" type="curve"/>
      <point x="237" y="766" type="line"/>
      <point x="197" y="739"/>
      <point x="138" y="694"/>
      <point x="92" y="619" type="curve" smooth="yes"/>
      <point x="47" y="544"/>
      <point x="13" y="439"/>
      <point x="13" y="291" type="curve" smooth="yes"/>
      <point x="13" y="143"/>
      <point x="47" y="37"/>
      <point x="93" y="-37" type="curve" smooth="yes"/>
      <point x="138" y="-112"/>
      <point x="196" y="-157"/>
      <point x="237" y="-184" type="curve"/>
    </contour>
  </outline>
</glyph>
<glyph name="parenright" format="1">
  <advance width="276"/>
  <unicode hex="0029"/>
  <outline>
    <contour>
      <point x="39" y="-184" type="line"/>
      <point x="79" y="-157"/>
      <point x="137" y="-112"/>
      <point x="183" y="-37" type="curve" smooth="yes"/>
      <point x="228" y="37"/>
      <point x="263" y="143"/>
      <point x="263" y="291" type="curve" smooth="yes"/>
      <point x="263" y="439"/>
      <point x="230" y="544"/>
      <point x="184" y="619" type="curve" smooth="yes"/>
      <point x="137" y="694"/>
      <point x="79" y="739"/>
      <point x="39" y="766" type="curve"/>
      <point x="-31" y="652" type="line"/>
      <point x="0" y="615"/>
      <point x="19" y="583"/>
      <point x="29" y="531" type="curve" smooth="yes"/>
      <point x="40" y="479"/>
      <point x="44" y="407"/>
      <point x="44" y="291" type="curve" smooth="yes"/>
      <point x="44" y="175"/>
      <point x="41" y="103"/>
      <point x="29" y="51" type="curve" smooth="yes"/>
      <point x="18" y="-1"/>
      <point x="0" y="-33"/>
      <point x="-31" y="-70" type="curve"/>
    </contour>
  </outline>
</glyph>
<glyph name="comma" format="1">
  <advance width="217"/>
  <unicode hex="002C"/>
  <outline>
    <contour>
      <point x="-3" y="-170" type="line"/>
      <point x="129" y="-170" type="line"/>
      <point x="222" y="176" type="line"/>
      <point x="7" y="176" type="line"/>
    </contour>
  </outline>
</glyph>
<glyph name="hyphen" format="1">
  <advance width="230"/>
  <unicode hex="002D"/>
  <outline>
    <contour>
      <point x="0" y="347" type="line"/>
      <point x="0" y="150" type="line"/>
      <point x="230" y="150" type="line"/>
      <point x="230" y="347" type="line"/>
    </contour>
  </outline>
</glyph>
<glyph name="period" format="1">
  <advance width="217"/>
  <unicode hex="002E"/>
  <outline>
    <contour>
      <point x="7" y="177" type="line"/>
      <point x="7" y="0" type="line"/>
      <point x="210" y="0" type="line"/>
      <point x="210" y="177" type="line"/>
    </contour>
  </outline>
</glyph>
<glyph name="slash" format="1">
  <advance width="310"/>
  <unicode hex="002F"/>
  <outline>
    <contour>
      <point x="324" y="739" type="line"/>
      <point x="166" y="739" type="line"/>
      <point x="-10" y="-12" type="line"/>
      <point x="148" y="-12" type="line"/>
    </contour>
  </outline>
</glyph>
<glyph name="zero" format="1">
  <advance width="457"/>
  <unicode hex="0030"/>
  <outline>
    <contour>
      <point x="14" y="346" type="line"/>
      <point x="14" y="100"/>
      <point x="88" y="-12"/>
      <point x="228" y="-12" type="curve" smooth="yes"/>
      <point x="385" y="-12"/>
      <point x="444" y="128"/>
      <point x="444" y="346" type="curve" smooth="yes"/>
      <point x="444" y="568"/>
      <point x="389" y="705"/>
      <point x="228" y="705" type="curve" smooth="yes"/>
      <point x="71" y="705"/>
      <point x="14" y="576"/>
      <point x="14" y="347" type="curve"/>
    </contour>
    <contour>
      <point x="228" y="556" type="line"/>
      <point x="243" y="556"/>
      <point x="237" y="507"/>
      <point x="237" y="348" type="curve" smooth="yes"/>
      <point x="237" y="185"/>
      <point x="238" y="137"/>
      <point x="228" y="137" type="curve" smooth="yes"/>
      <point x="220" y="137"/>
      <point x="221" y="176"/>
      <point x="221" y="348" type="curve" smooth="yes"/>
      <point x="221" y="514"/>
      <point x="215" y="556"/>
      <point x="227" y="556" type="curve"/>
    </contour>
  </outline>
</glyph>
<glyph name="one" format="1">
  <advance width="352"/>
  <unicode hex="0031"/>
  <outline>
    <contour>
      <point x="-29" y="541" type="line"/>
      <point x="48" y="393" type="line"/>
      <point x="137" y="444" type="line"/>
      <point x="137" y="0" type="line"/>
      <point x="339" y="0" type="line"/>
      <point x="339" y="698" type="line"/>
      <point x="229" y="698" type="line"/>
    </contour>
  </outline>
</glyph>
<glyph name="two" format="1">
  <advance width="437"/>
  <unicode hex="0032"/>
  <outline>
    <contour>
      <point x="431" y="169" type="line"/>
      <point x="216" y="169" type="line"/>
      <point x="259" y="272"/>
      <point x="427" y="311"/>
      <point x="427" y="514" type="curve" smooth="yes"/>
      <point x="427" y="614"/>
      <point x="369" y="705"/>
      <point x="212" y="705" type="curve" smooth="yes"/>
      <point x="30" y="705"/>
      <point x="-7" y="569"/>
      <point x="-3" y="459" type="curve"/>
      <point x="193" y="460" type="line"/>
      <point x="192" y="531"/>
      <point x="195" y="556"/>
      <point x="207" y="556" type="curve" smooth="yes"/>
      <point x="215" y="556"/>
      <point x="219" y="533"/>
      <point x="219" y="510" type="curve" smooth="yes"/>
      <point x="219" y="389"/>
      <point x="28" y="305"/>
      <point x="-3" y="9" type="curve"/>
      <point x="14" y="0" type="line"/>
      <point x="431" y="0" type="line"/>
    </contour>
  </outline>
</glyph>
<glyph name="three" format="1">
  <advance width="441"/>
  <unicode hex="0033"/>
  <outline>
    <contour>
      <point x="131" y="280" type="line"/>
      <point x="198" y="280"/>
      <point x="229" y="257"/>
      <point x="229" y="185" type="curve" smooth="yes"/>
      <point x="229" y="158"/>
      <point x="227" y="137"/>
      <point x="220" y="137" type="curve" smooth="yes"/>
      <point x="206" y="137"/>
      <point x="206" y="175"/>
      <point x="206" y="228" type="curve"/>
      <point x="10" y="230" type="line"/>
      <point x="8" y="114"/>
      <point x="33" y="-12"/>
      <point x="225" y="-12" type="curve" smooth="yes"/>
      <point x="349" y="-12"/>
      <point x="437" y="52"/>
      <point x="437" y="193" type="curve" smooth="yes"/>
      <point x="437" y="284"/>
      <point x="378" y="356"/>
      <point x="290" y="373" type="curve"/>
      <point x="290" y="375" type="line"/>
      <point x="377" y="392"/>
      <point x="412" y="453"/>
      <point x="412" y="533" type="curve" smooth="yes"/>
      <point x="412" y="646"/>
      <point x="331" y="705"/>
      <point x="213" y="705" type="curve" smooth="yes"/>
      <point x="26" y="705"/>
      <point x="7" y="572"/>
      <point x="9" y="477" type="curve"/>
      <point x="191" y="479" type="line"/>
      <point x="190" y="530"/>
      <point x="191" y="556"/>
      <point x="203" y="556" type="curve" smooth="yes"/>
      <point x="211" y="556"/>
      <point x="214" y="539"/>
      <point x="214" y="516" type="curve" smooth="yes"/>
      <point x="214" y="468"/>
      <point x="191" y="439"/>
      <point x="131" y="439" type="curve"/>
    </contour>
  </outline>
</glyph>
<glyph name="four" format="1">
  <advance width="463"/>
  <unicode hex="0034"/>
  <outline>
    <contour>
      <point x="-3" y="288" type="line"/>
      <point x="-3" y="149" type="line"/>
      <point x="227" y="149" type="line"/>
      <point x="227" y="0" type="line"/>
      <point x="429" y="0" type="line"/>
      <point x="429" y="149" type="line"/>
      <point x="453" y="149" type="line"/>
      <point x="453" y="288" type="line"/>
      <point x="429" y="288" type="line"/>
      <point x="429" y="698" type="line"/>
      <point x="189" y="698" type="line"/>
    </contour>
    <contour>
      <point x="143" y="288" type="line"/>
      <point x="182" y="373" type="line" smooth="yes"/>
      <point x="199" y="412"/>
      <point x="211" y="442"/>
      <point x="224" y="479" type="curve"/>
      <point x="229" y="479" type="line"/>
      <point x="228" y="453"/>
      <point x="227" y="409"/>
      <point x="227" y="375" type="curve" smooth="yes"/>
      <point x="227" y="288" type="line"/>
    </contour>
  </outline>
</glyph>
<glyph name="five" format="1">
  <advance width="452"/>
  <unicode hex="0035"/>
  <outline>
    <contour>
      <point x="34" y="301" type="line"/>
      <point x="212" y="282" type="line"/>
      <point x="210" y="296"/>
      <point x="215" y="309"/>
      <point x="219" y="309" type="curve" smooth="yes"/>
      <point x="230" y="309"/>
      <point x="233" y="290"/>
      <point x="233" y="219" type="curve" smooth="yes"/>
      <point x="233" y="149"/>
      <point x="230" y="127"/>
      <point x="222" y="127" type="curve" smooth="yes"/>
      <point x="211" y="127"/>
      <point x="211" y="160"/>
      <point x="212" y="231" type="curve"/>
      <point x="15" y="233" type="line"/>
      <point x="11" y="77"/>
      <point x="80" y="-12"/>
      <point x="225" y="-12" type="curve" smooth="yes"/>
      <point x="348" y="-12"/>
      <point x="440" y="56"/>
      <point x="440" y="230" type="curve" smooth="yes"/>
      <point x="440" y="380"/>
      <point x="396" y="455"/>
      <point x="302" y="455" type="curve" smooth="yes"/>
      <point x="273" y="455"/>
      <point x="245" y="442"/>
      <point x="230" y="425" type="curve"/>
      <point x="227" y="425" type="line"/>
      <point x="246" y="533" type="line"/>
      <point x="398" y="533" type="line"/>
      <point x="416" y="692" type="line"/>
      <point x="82" y="692" type="line"/>
    </contour>
  </outline>
</glyph>
<glyph name="six" format="1">
  <advance width="451"/>
  <unicode hex="0036"/>
  <outline>
    <contour>
      <point x="218" y="415" type="line"/>
      <point x="217" y="534"/>
      <point x="221" y="556"/>
      <point x="229" y="556" type="curve" smooth="yes"/>
      <point x="239" y="556"/>
      <point x="240" y="517"/>
      <point x="239" y="474" type="curve"/>
      <point x="433" y="472" type="line"/>
      <point x="439" y="637"/>
      <point x="357" y="705"/>
      <point x="238" y="705" type="curve" smooth="yes"/>
      <point x="14" y="705"/>
      <point x="10" y="477"/>
      <point x="10" y="363" type="curve" smooth="yes"/>
      <point x="10" y="12"/>
      <point x="164" y="-12"/>
      <point x="236" y="-12" type="curve" smooth="yes"/>
      <point x="408" y="-12"/>
      <point x="450" y="130"/>
      <point x="450" y="234" type="curve" smooth="yes"/>
      <point x="450" y="371"/>
      <point x="385" y="438"/>
      <point x="307" y="438" type="curve" smooth="yes"/>
      <point x="265" y="438"/>
      <point x="240" y="427"/>
      <point x="222" y="415" type="curve"/>
    </contour>
    <contour>
      <point x="218" y="239" type="line"/>
      <point x="218" y="266"/>
      <point x="220" y="289"/>
      <point x="230" y="289" type="curve" smooth="yes"/>
      <point x="234" y="289"/>
      <point x="242" y="269"/>
      <point x="242" y="212" type="curve" smooth="yes"/>
      <point x="242" y="154"/>
      <point x="242" y="137"/>
      <point x="231" y="137" type="curve" smooth="yes"/>
      <point x="221" y="137"/>
      <point x="218" y="184"/>
      <point x="218" y="238" type="curve"/>
    </contour>
  </outline>
</glyph>
<glyph name="seven" format="1">
  <advance width="333"/>
  <unicode hex="0037"/>
  <outline>
    <contour>
      <point x="350" y="692" type="line"/>
      <point x="-11" y="692" type="line"/>
      <point x="-11" y="518" type="line"/>
      <point x="156" y="518" type="line"/>
      <point x="156" y="511" type="line"/>
      <point x="33" y="0" type="line"/>
      <point x="240" y="0" type="line"/>
      <point x="350" y="641" type="line"/>
    </contour>
  </outline>
</glyph>
<glyph name="eight" format="1">
  <advance width="448"/>
  <unicode hex="0038"/>
  <outline>
    <contour>
      <point x="98" y="372" type="line"/>
      <point x="45" y="336"/>
      <point x="6" y="283"/>
      <point x="6" y="196" type="curve" smooth="yes"/>
      <point x="6" y="34"/>
      <point x="148" y="-12"/>
      <point x="224" y="-12" type="curve" smooth="yes"/>
      <point x="303" y="-12"/>
      <point x="443" y="37"/>
      <point x="443" y="196" type="curve" smooth="yes"/>
      <point x="443" y="295"/>
      <point x="395" y="337"/>
      <point x="351" y="372" type="curve"/>
      <point x="351" y="374" type="line"/>
      <point x="383" y="397"/>
      <point x="437" y="442"/>
      <point x="437" y="526" type="curve" smooth="yes"/>
      <point x="437" y="632"/>
      <point x="350" y="705"/>
      <point x="224" y="705" type="curve" smooth="yes"/>
      <point x="76" y="705"/>
      <point x="11" y="613"/>
      <point x="11" y="526" type="curve" smooth="yes"/>
      <point x="11" y="469"/>
      <point x="35" y="418"/>
      <point x="98" y="374" type="curve"/>
    </contour>
    <contour>
      <point x="213" y="497" type="line"/>
      <point x="213" y="536"/>
      <point x="219" y="556"/>
      <point x="224" y="556" type="curve" smooth="yes"/>
      <point x="230" y="556"/>
      <point x="235" y="538"/>
      <point x="235" y="498" type="curve" smooth="yes"/>
      <point x="235" y="464"/>
      <point x="237" y="430"/>
      <point x="224" y="430" type="curve" smooth="yes"/>
      <point x="214" y="430"/>
      <point x="213" y="462"/>
      <point x="213" y="496" type="curve"/>
    </contour>
    <contour>
      <point x="213" y="207" type="line"/>
      <point x="213" y="254"/>
      <point x="216" y="281"/>
      <point x="224" y="281" type="curve" smooth="yes"/>
      <point x="228" y="281"/>
      <point x="235" y="258"/>
      <point x="235" y="207" type="curve" smooth="yes"/>
      <point x="235" y="167"/>
      <point x="236" y="137"/>
      <point x="224" y="137" type="curve" smooth="yes"/>
      <point x="212" y="137"/>
      <point x="213" y="168"/>
      <point x="213" y="206" type="curve"/>
    </contour>
  </outline>
</glyph>
<glyph name="nine" format="1">
  <advance width="455"/>
  <unicode hex="0039"/>
  <outline>
    <contour>
      <point x="238" y="278" type="line"/>
      <point x="239" y="160"/>
      <point x="237" y="137"/>
      <point x="227" y="137" type="curve" smooth="yes"/>
      <point x="215" y="137"/>
      <point x="214" y="170"/>
      <point x="216" y="224" type="curve"/>
      <point x="20" y="227" type="line"/>
      <point x="14" y="72"/>
      <point x="77" y="-12"/>
      <point x="216" y="-12" type="curve" smooth="yes"/>
      <point x="412" y="-12"/>
      <point x="445" y="181"/>
      <point x="445" y="342" type="curve" smooth="yes"/>
      <point x="445" y="605"/>
      <point x="353" y="705"/>
      <point x="220" y="705" type="curve" smooth="yes"/>
      <point x="49" y="705"/>
      <point x="6" y="564"/>
      <point x="6" y="459" type="curve" smooth="yes"/>
      <point x="6" y="373"/>
      <point x="33" y="255"/>
      <point x="149" y="255" type="curve" smooth="yes"/>
      <point x="190" y="255"/>
      <point x="214" y="266"/>
      <point x="234" y="278" type="curve"/>
    </contour>
    <contour>
      <point x="236" y="450" type="line"/>
      <point x="236" y="415"/>
      <point x="231" y="404"/>
      <point x="225" y="404" type="curve" smooth="yes"/>
      <point x="220" y="404"/>
      <point x="214" y="425"/>
      <point x="214" y="481" type="curve" smooth="yes"/>
      <point x="214" y="539"/>
      <point x="215" y="556"/>
      <point x="223" y="556" type="curve" smooth="yes"/>
      <point x="236" y="556"/>
      <point x="236" y="514"/>
      <point x="236" y="451" type="curve"/>
    </contour>
  </outline>
</glyph>
<glyph name="colon" format="1">
  <advance width="217"/>
  <unicode hex="003A"/>
  <outline>
    <contour>
      <point x="7" y="497" type="line"/>
      <point x="7" y="320" type="line"/>
      <point x="210" y="320" type="line"/>
      <point x="210" y="497" type="line"/>
    </contour>
    <contour>
      <point x="7" y="177" type="line"/>
      <point x="7" y="0" type="line"/>
      <point x="210" y="0" type="line"/>
      <point x="210" y="177" type="line"/>
    </contour>
  </outline>
</glyph>
<glyph name="semicolon" format="1">
  <advance width="217"/>
  <unicode hex="003B"/>
  <outline>
    <contour>
      <point x="7" y="497" type="line"/>
      <point x="7" y="320" type="line"/>
      <point x="210" y="320" type="line"/>
      <point x="210" y="497" type="line"/>
    </contour>
    <contour>
      <point x="-3" y="-170" type="line"/>
      <point x="129" y="-170" type="line"/>
      <point x="222" y="177" type="line"/>
      <point x="7" y="177" type="line"/>
    </contour>
  </outline>
</glyph>
<glyph name="question" format="1">
  <advance width="427"/>
  <unicode hex="003F"/>
  <outline>
    <contour>
      <point x="300" y="257" type="line"/>
      <point x="300" y="266"/>
      <point x="303" y="302"/>
      <point x="349" y="347" type="curve" smooth="yes"/>
      <point x="403" y="397"/>
      <point x="439" y="447"/>
      <point x="439" y="538" type="curve" smooth="yes"/>
      <point x="439" y="625"/>
      <point x="379" y="719"/>
      <point x="225" y="719" type="curve" smooth="yes"/>
      <point x="54" y="719"/>
      <point x="-6" y="606"/>
      <point x="-3" y="498" type="curve"/>
      <point x="206" y="500" type="line"/>
      <point x="205" y="550"/>
      <point x="203" y="585"/>
      <point x="218" y="585" type="curve" smooth="yes"/>
      <point x="228" y="585"/>
      <point x="232" y="572"/>
      <point x="232" y="523" type="curve" smooth="yes"/>
      <point x="232" y="494"/>
      <point x="219" y="467"/>
      <point x="190" y="424" type="curve" smooth="yes"/>
      <point x="131" y="336"/>
      <point x="125" y="295"/>
      <point x="131" y="257" type="curve"/>
    </contour>
    <contour>
      <point x="114" y="177" type="line"/>
      <point x="114" y="0" type="line"/>
      <point x="317" y="0" type="line"/>
      <point x="317" y="177" type="line"/>
    </contour>
  </outline>
</glyph>
<glyph name="at" format="1">
  <advance width="642"/>
  <unicode hex="0040"/>
  <outline>
    <contour>
      <point x="461" y="145" type="line"/>
      <point x="417" y="129"/>
      <point x="377" y="121"/>
      <point x="324" y="121" type="curve" smooth="yes"/>
      <point x="231" y="121"/>
      <point x="129" y="180"/>
      <point x="129" y="318" type="curve" smooth="yes"/>
      <point x="129" y="392"/>
      <point x="155" y="456"/>
      <point x="198" y="504" type="curve" smooth="yes"/>
      <point x="240" y="551"/>
      <point x="298" y="580"/>
      <point x="362" y="580" type="curve" smooth="yes"/>
      <point x="420" y="580"/>
      <point x="461" y="566"/>
      <point x="488" y="541" type="curve" smooth="yes"/>
      <point x="514" y="516"/>
      <point x="527" y="480"/>
      <point x="527" y="435" type="curve" smooth="yes"/>
      <point x="527" y="399"/>
      <point x="522" y="362"/>
      <point x="502" y="321" type="curve" smooth="yes"/>
      <point x="487" y="289"/>
      <point x="470" y="273"/>
      <point x="457" y="274" type="curve" smooth="yes"/>
      <point x="441" y="273"/>
      <point x="442" y="286"/>
      <point x="451" y="325" type="curve" smooth="yes"/>
      <point x="498" y="523" type="line"/>
      <point x="383" y="523" type="line"/>
      <point x="379" y="504" type="line"/>
      <point x="377" y="504" type="line"/>
      <point x="367" y="519"/>
      <point x="350" y="525"/>
      <point x="323" y="525" type="curve" smooth="yes"/>
      <point x="291" y="525"/>
      <point x="255" y="509"/>
      <point x="216" y="462" type="curve" smooth="yes"/>
      <point x="173" y="409"/>
      <point x="161" y="350"/>
      <point x="161" y="292" type="curve" smooth="yes"/>
      <point x="161" y="222"/>
      <point x="195" y="179"/>
      <point x="242" y="179" type="curve" smooth="yes"/>
      <point x="284" y="179"/>
      <point x="324" y="215"/>
      <point x="334" y="247" type="curve"/>
      <point x="337" y="247" type="line"/>
      <point x="336" y="228"/>
      <point x="346" y="210"/>
      <point x="355" y="201" type="curve" smooth="yes"/>
      <point x="374" y="183"/>
      <point x="398" y="179"/>
      <point x="429" y="179" type="curve" smooth="yes"/>
      <point x="468" y="179"/>
      <point x="516" y="189"/>
      <point x="568" y="239" type="curve" smooth="yes"/>
      <point x="615" y="284"/>
      <point x="641" y="352"/>
      <point x="641" y="433" type="curve" smooth="yes"/>
      <point x="641" y="565"/>
      <point x="564" y="686"/>
      <point x="365" y="686" type="curve" smooth="yes"/>
      <point x="146" y="686"/>
      <point x="1" y="517"/>
      <point x="1" y="331" type="curve" smooth="yes"/>
      <point x="1" y="114"/>
      <point x="156" y="15"/>
      <point x="305" y="15" type="curve" smooth="yes"/>
      <point x="386" y="15"/>
      <point x="463" y="34"/>
      <point x="507" y="68" type="curve"/>
    </contour>
    <contour>
      <point x="295" y="332" type="line"/>
      <point x="295" y="356"/>
      <point x="309" y="393"/>
      <point x="319" y="410" type="curve"/>
      <point x="331" y="429"/>
      <point x="339" y="433"/>
      <point x="349" y="433" type="curve" smooth="yes"/>
      <point x="356" y="433"/>
      <point x="359" y="429"/>
      <point x="359" y="424" type="curve" smooth="yes"/>
      <point x="359" y="419"/>
      <point x="347" y="374"/>
      <point x="344" y="361" type="curve" smooth="yes"/>
      <point x="337" y="338"/>
      <point x="321" y="308"/>
      <point x="306" y="308" type="curve" smooth="yes"/>
      <point x="295" y="308"/>
      <point x="295" y="318"/>
      <point x="295" y="331" type="curve"/>
    </contour>
  </outline>
</glyph>
<glyph name="B" format="1">
  <advance width="466"/>
  <unicode hex="0042"/>
  <outline>
    <contour>
      <point x="314" y="379" type="line"/>
      <point x="376" y="387"/>
      <point x="450" y="432"/>
      <point x="450" y="536" type="curve" smooth="yes"/>
      <point x="450" y="680"/>
      <point x="324" y="709"/>
      <point x="199" y="709" type="curve" smooth="yes"/>
      <point x="17" y="709" type="line"/>
      <point x="17" y="0" type="line"/>
      <point x="220" y="0" type="line" smooth="yes"/>
      <point x="364" y="0"/>
      <point x="465" y="60"/>
      <point x="465" y="200" type="curve" smooth="yes"/>
      <point x="465" y="308"/>
      <point x="408" y="354"/>
      <point x="314" y="374" type="curve"/>
    </contour>
    <contour>
      <point x="249" y="215" type="curve" smooth="yes"/>
      <point x="249" y="169"/>
      <point x="244" y="149"/>
      <point x="228" y="149" type="curve" smooth="yes"/>
      <point x="229" y="149" type="line"/>
      <point x="229" y="296" type="line"/>
      <point x="227" y="296" type="line" smooth="yes"/>
      <point x="246" y="296"/>
      <point x="249" y="259"/>
    </contour>
    <contour>
      <point x="248" y="508" type="curve" smooth="yes"/>
      <point x="248" y="461"/>
      <point x="239" y="445"/>
      <point x="228" y="445" type="curve" smooth="yes"/>
      <point x="229" y="445" type="line"/>
      <point x="229" y="560" type="line"/>
      <point x="228" y="560" type="line" smooth="yes"/>
      <point x="237" y="560"/>
      <point x="248" y="546"/>
    </contour>
  </outline>
</glyph>
<glyph name="C" format="1">
  <advance width="446"/>
  <unicode hex="0043"/>
  <outline>
    <contour>
      <point x="242" y="287" type="line"/>
      <point x="243" y="162"/>
      <point x="246" y="135"/>
      <point x="236" y="135" type="curve" smooth="yes"/>
      <point x="227" y="135"/>
      <point x="230" y="187"/>
      <point x="230" y="352" type="curve" smooth="yes"/>
      <point x="230" y="523"/>
      <point x="230" y="574"/>
      <point x="236" y="574" type="curve" smooth="yes"/>
      <point x="245" y="574"/>
      <point x="242" y="544"/>
      <point x="241" y="428" type="curve"/>
      <point x="435" y="426" type="line"/>
      <point x="438" y="682"/>
      <point x="320" y="723"/>
      <point x="238" y="723" type="curve" smooth="yes"/>
      <point x="165" y="723"/>
      <point x="117" y="698"/>
      <point x="83" y="658" type="curve" smooth="yes"/>
      <point x="30" y="597"/>
      <point x="13" y="497"/>
      <point x="13" y="366" type="curve" smooth="yes"/>
      <point x="13" y="196"/>
      <point x="41" y="101"/>
      <point x="87" y="47" type="curve" smooth="yes"/>
      <point x="125" y="2"/>
      <point x="181" y="-14"/>
      <point x="239" y="-14" type="curve" smooth="yes"/>
      <point x="322" y="-14"/>
      <point x="444" y="35"/>
      <point x="440" y="289" type="curve"/>
    </contour>
  </outline>
</glyph>
<glyph name="D" format="1">
  <advance width="467"/>
  <unicode hex="0044"/>
  <outline>
    <contour>
      <point x="466" y="361" type="curve" smooth="yes"/>
      <point x="466" y="627"/>
      <point x="365" y="709"/>
      <point x="213" y="709" type="curve" smooth="yes"/>
      <point x="17" y="709" type="line"/>
      <point x="17" y="0" type="line"/>
      <point x="214" y="0" type="line"/>
      <point x="399" y="0"/>
      <point x="466" y="119"/>
    </contour>
    <contour>
      <point x="249" y="352" type="curve" smooth="yes"/>
      <point x="249" y="169"/>
      <point x="245" y="149"/>
      <point x="226" y="149" type="curve" smooth="yes"/>
      <point x="229" y="149" type="line"/>
      <point x="229" y="560" type="line"/>
      <point x="227" y="560" type="line" smooth="yes"/>
      <point x="250" y="560"/>
      <point x="249" y="454"/>
    </contour>
  </outline>
</glyph>
<glyph name="E" format="1">
  <advance width="309"/>
  <unicode hex="0045"/>
  <outline>
    <contour>
      <point x="229" y="437" type="line"/>
      <point x="229" y="560" type="line"/>
      <point x="307" y="560" type="line"/>
      <point x="307" y="709" type="line"/>
      <point x="17" y="709" type="line"/>
      <point x="17" y="0" type="line"/>
      <point x="307" y="0" type="line"/>
      <point x="307" y="149" type="line"/>
      <point x="229" y="149" type="line"/>
      <point x="229" y="288" type="line"/>
      <point x="291" y="288" type="line"/>
      <point x="291" y="437" type="line"/>
    </contour>
  </outline>
</glyph>
<glyph name="F" format="1">
  <advance width="321"/>
  <unicode hex="0046"/>
  <outline>
    <contour>
      <point x="229" y="0" type="line"/>
      <point x="229" y="278" type="line"/>
      <point x="290" y="278" type="line"/>
      <point x="290" y="427" type="line"/>
      <point x="229" y="427" type="line"/>
      <point x="229" y="560" type="line"/>
      <point x="319" y="560" type="line"/>
      <point x="319" y="709" type="line"/>
      <point x="17" y="709" type="line"/>
      <point x="17" y="0" type="line"/>
    </contour>
  </outline>
</glyph>
<glyph name="G" format="1">
  <advance width="452"/>
  <unicode hex="0047"/>
  <outline>
    <contour>
      <point x="437" y="378" type="line"/>
      <point x="238" y="378" type="line"/>
      <point x="238" y="229" type="line"/>
      <point x="246" y="229" type="line"/>
      <point x="246" y="143" type="line"/>
      <point x="245" y="139"/>
      <point x="244" y="135"/>
      <point x="244" y="135" type="curve" smooth="yes"/>
      <point x="229" y="135"/>
      <point x="230" y="177"/>
      <point x="230" y="355" type="curve" smooth="yes"/>
      <point x="230" y="528"/>
      <point x="229" y="574"/>
      <point x="235" y="574" type="curve" smooth="yes"/>
      <point x="245" y="574"/>
      <point x="244" y="545"/>
      <point x="243" y="425" type="curve"/>
      <point x="438" y="422" type="line"/>
      <point x="444" y="600"/>
      <point x="391" y="723"/>
      <point x="237" y="723" type="curve" smooth="yes"/>
      <point x="67" y="723"/>
      <point x="13" y="590"/>
      <point x="13" y="368" type="curve" smooth="yes"/>
      <point x="13" y="147"/>
      <point x="44" y="-14"/>
      <point x="243" y="-14" type="curve" smooth="yes"/>
      <point x="333" y="-14"/>
      <point x="406" y="46"/>
      <point x="437" y="116" type="curve"/>
    </contour>
  </outline>
</glyph>
<glyph name="H" format="1">
  <advance width="477"/>
  <unicode hex="0048"/>
  <outline>
    <contour>
      <point x="460" y="709" type="line"/>
      <point x="248" y="709" type="line"/>
      <point x="248" y="437" type="line"/>
      <point x="229" y="437" type="line"/>
      <point x="229" y="709" type="line"/>
      <point x="17" y="709" type="line"/>
      <point x="17" y="0" type="line"/>
      <point x="229" y="0" type="line"/>
      <point x="229" y="288" type="line"/>
      <point x="248" y="288" type="line"/>
      <point x="248" y="0" type="line"/>
      <point x="460" y="0" type="line"/>
    </contour>
  </outline>
</glyph>
<glyph name="I" format="1">
  <advance width="246"/>
  <unicode hex="0049"/>
  <outline>
    <contour>
      <point x="229" y="0" type="line"/>
      <point x="229" y="709" type="line"/>
      <point x="17" y="709" type="line"/>
      <point x="17" y="0" type="line"/>
    </contour>
  </outline>
</glyph>
<glyph name="J" format="1">
  <advance width="289"/>
  <unicode hex="004A"/>
  <outline>
    <contour>
      <point x="10" y="-4" type="line"/>
      <point x="32" y="-9"/>
      <point x="55" y="-14"/>
      <point x="96" y="-14" type="curve" smooth="yes"/>
      <point x="213" y="-14"/>
      <point x="272" y="50"/>
      <point x="272" y="188" type="curve" smooth="yes"/>
      <point x="272" y="709" type="line"/>
      <point x="60" y="709" type="line"/>
      <point x="60" y="167" type="line" smooth="yes"/>
      <point x="60" y="144"/>
      <point x="52" y="135"/>
      <point x="40" y="135" type="curve" smooth="yes"/>
      <point x="34" y="135"/>
      <point x="26" y="138"/>
      <point x="19" y="144" type="curve"/>
    </contour>
  </outline>
</glyph>
<glyph name="K" format="1">
  <advance width="507"/>
  <unicode hex="004B"/>
  <outline>
    <contour>
      <point x="227" y="438" type="line"/>
      <point x="229" y="470"/>
      <point x="229" y="513"/>
      <point x="229" y="545" type="curve" smooth="yes"/>
      <point x="229" y="709" type="line"/>
      <point x="17" y="709" type="line"/>
      <point x="17" y="0" type="line"/>
      <point x="229" y="0" type="line"/>
      <point x="229" y="167" type="line"/>
      <point x="242" y="203" type="line"/>
      <point x="306" y="0" type="line"/>
      <point x="528" y="0" type="line"/>
      <point x="361" y="397" type="line"/>
      <point x="520" y="709" type="line"/>
      <point x="315" y="709" type="line"/>
      <point x="261" y="544" type="line" smooth="yes"/>
      <point x="250" y="511"/>
      <point x="239" y="474"/>
      <point x="233" y="438" type="curve"/>
    </contour>
  </outline>
</glyph>
<glyph name="M" format="1">
  <advance width="674"/>
  <unicode hex="004D"/>
  <outline>
    <contour>
      <point x="335" y="268" type="line"/>
      <point x="337" y="393"/>
      <point x="336" y="486"/>
      <point x="315" y="709" type="curve"/>
      <point x="17" y="709" type="line"/>
      <point x="17" y="0" type="line"/>
      <point x="198" y="0" type="line"/>
      <point x="198" y="244"/>
      <point x="196" y="409"/>
      <point x="191" y="510" type="curve"/>
      <point x="194" y="510" type="line"/>
      <point x="200" y="409"/>
      <point x="212" y="245"/>
      <point x="232" y="0" type="curve"/>
      <point x="442" y="0" type="line"/>
      <point x="463" y="245"/>
      <point x="474" y="409"/>
      <point x="479" y="510" type="curve"/>
      <point x="482" y="510" type="line"/>
      <point x="480" y="410"/>
      <point x="477" y="246"/>
      <point x="477" y="0" type="curve"/>
      <point x="657" y="0" type="line"/>
      <point x="657" y="709" type="line"/>
      <point x="359" y="709" type="line"/>
      <point x="336" y="486"/>
      <point x="338" y="393"/>
      <point x="339" y="268" type="curve"/>
    </contour>
  </outline>
</glyph>
<glyph name="N" format="1">
  <advance width="516"/>
  <unicode hex="004E"/>
  <outline>
    <contour>
      <point x="323" y="338" type="line"/>
      <point x="321" y="393"/>
      <point x="302" y="519"/>
      <point x="263" y="709" type="curve"/>
      <point x="17" y="709" type="line"/>
      <point x="17" y="0" type="line"/>
      <point x="198" y="0" type="line"/>
      <point x="198" y="188"/>
      <point x="190" y="315"/>
      <point x="185" y="371" type="curve"/>
      <point x="192" y="371" type="line"/>
      <point x="195" y="316"/>
      <point x="214" y="190"/>
      <point x="253" y="0" type="curve"/>
      <point x="498" y="0" type="line"/>
      <point x="498" y="709" type="line"/>
      <point x="318" y="709" type="line"/>
      <point x="318" y="521"/>
      <point x="325" y="395"/>
      <point x="330" y="338" type="curve"/>
    </contour>
  </outline>
</glyph>
<glyph name="O" format="1">
  <advance width="476"/>
  <unicode hex="004F"/>
  <outline>
    <contour>
      <point x="13" y="355" type="line"/>
      <point x="13" y="109"/>
      <point x="75" y="-14"/>
      <point x="238" y="-14" type="curve" smooth="yes"/>
      <point x="401" y="-14"/>
      <point x="462" y="109"/>
      <point x="462" y="355" type="curve" smooth="yes"/>
      <point x="462" y="600"/>
      <point x="401" y="723"/>
      <point x="238" y="723" type="curve" smooth="yes"/>
      <point x="75" y="723"/>
      <point x="13" y="600"/>
      <point x="13" y="356" type="curve"/>
    </contour>
    <contour>
      <point x="238" y="574" type="line"/>
      <point x="249" y="574"/>
      <point x="245" y="536"/>
      <point x="245" y="353" type="curve" smooth="yes"/>
      <point x="245" y="173"/>
      <point x="249" y="135"/>
      <point x="238" y="135" type="curve" smooth="yes"/>
      <point x="226" y="135"/>
      <point x="230" y="173"/>
      <point x="230" y="353" type="curve" smooth="yes"/>
      <point x="230" y="536"/>
      <point x="226" y="574"/>
      <point x="237" y="574" type="curve"/>
    </contour>
  </outline>
</glyph>
<glyph name="P" format="1">
  <advance width="473"/>
  <unicode hex="0050"/>
  <outline>
    <contour>
      <point x="229" y="0" type="line"/>
      <point x="229" y="227" type="line"/>
      <point x="235" y="227" type="line"/>
      <point x="374" y="227"/>
      <point x="472" y="312"/>
      <point x="472" y="474" type="curve" smooth="yes"/>
      <point x="472" y="626"/>
      <point x="384" y="709"/>
      <point x="220" y="709" type="curve" smooth="yes"/>
      <point x="17" y="709" type="line"/>
      <point x="17" y="0" type="line"/>
    </contour>
    <contour>
      <point x="229" y="376" type="curve" smooth="yes"/>
      <point x="229" y="560" type="line"/>
      <point x="231" y="560" type="line" smooth="yes"/>
      <point x="240" y="560"/>
      <point x="255" y="548"/>
      <point x="255" y="472" type="curve" smooth="yes"/>
      <point x="255.0" y="399.93181932"/>
      <point x="250.619984258" y="378.671821244"/>
      <point x="232.841102322" y="376.244081438" type="curve" smooth="yes"/>
      <point x="231.624445642" y="376.077944678"/>
      <point x="230.345041633" y="376.0"/>
    </contour>
  </outline>
</glyph>
<glyph name="Q" format="1">
  <advance width="476"/>
  <unicode hex="0051"/>
  <outline>
    <contour>
      <point x="401" y="62" type="line"/>
      <point x="444" y="124"/>
      <point x="462" y="222"/>
      <point x="462" y="355" type="curve" smooth="yes"/>
      <point x="462" y="600"/>
      <point x="401" y="723"/>
      <point x="238" y="723" type="curve" smooth="yes"/>
      <point x="75" y="723"/>
      <point x="13" y="600"/>
      <point x="13" y="355" type="curve" smooth="yes"/>
      <point x="13" y="109"/>
      <point x="75" y="-14"/>
      <point x="238" y="-14" type="curve" smooth="yes"/>
      <point x="259" y="-14"/>
      <point x="278" y="-12"/>
      <point x="295" y="-8" type="curve"/>
      <point x="367" y="-140" type="line"/>
      <point x="503" y="-35" type="line"/>
    </contour>
    <contour>
      <point x="238" y="574" type="line"/>
      <point x="249" y="574"/>
      <point x="245" y="536"/>
      <point x="245" y="353" type="curve" smooth="yes"/>
      <point x="245" y="173"/>
      <point x="249" y="135"/>
      <point x="238" y="135" type="curve" smooth="yes"/>
      <point x="226" y="135"/>
      <point x="230" y="173"/>
      <point x="230" y="353" type="curve" smooth="yes"/>
      <point x="230" y="536"/>
      <point x="226" y="574"/>
      <point x="237" y="574" type="curve"/>
    </contour>
  </outline>
</glyph>
<glyph name="R" format="1">
  <advance width="491"/>
  <unicode hex="0052"/>
  <outline>
    <contour>
      <point x="508" y="0" type="line"/>
      <point x="291" y="0" type="line"/>
      <point x="230" y="251" type="line"/>
      <point x="229" y="251" type="line"/>
      <point x="229" y="0" type="line"/>
      <point x="17" y="0" type="line"/>
      <point x="17" y="709" type="line"/>
      <point x="210" y="709" type="line" smooth="yes"/>
      <point x="336" y="709"/>
      <point x="472" y="667"/>
      <point x="472" y="477" type="curve" smooth="yes"/>
      <point x="472" y="365"/>
      <point x="419" y="312"/>
      <point x="384" y="294" type="curve"/>
    </contour>
    <contour>
      <point x="228" y="395" type="line"/>
      <point x="229" y="395" type="line" smooth="yes"/>
      <point x="249" y="395"/>
      <point x="255" y="416"/>
      <point x="255" y="474" type="curve" smooth="yes"/>
      <point x="255" y="527"/>
      <point x="251" y="560"/>
      <point x="227" y="560" type="curve" smooth="yes"/>
      <point x="228" y="560" type="line"/>
    </contour>
  </outline>
</glyph>
<glyph name="S" format="1">
  <advance width="448"/>
  <unicode hex="0053"/>
  <outline>
    <contour>
      <point x="439" y="514" type="line"/>
      <point x="440" y="635"/>
      <point x="384" y="723"/>
      <point x="231" y="723" type="curve" smooth="yes"/>
      <point x="165" y="723"/>
      <point x="114" y="704"/>
      <point x="77" y="675" type="curve" smooth="yes"/>
      <point x="36" y="642"/>
      <point x="16" y="592"/>
      <point x="16" y="539" type="curve" smooth="yes"/>
      <point x="16" y="479"/>
      <point x="34" y="429"/>
      <point x="53" y="397" type="curve" smooth="yes"/>
      <point x="75" y="362"/>
      <point x="112" y="320"/>
      <point x="143" y="293" type="curve" smooth="yes"/>
      <point x="172" y="269"/>
      <point x="191" y="248"/>
      <point x="204" y="232" type="curve" smooth="yes"/>
      <point x="220" y="213"/>
      <point x="231" y="195"/>
      <point x="231" y="165" type="curve" smooth="yes"/>
      <point x="231" y="157"/>
      <point x="230" y="146"/>
      <point x="228" y="142" type="curve" smooth="yes"/>
      <point x="226" y="139"/>
      <point x="221" y="135"/>
      <point x="218" y="135" type="curve" smooth="yes"/>
      <point x="200" y="135"/>
      <point x="197" y="157"/>
      <point x="198" y="207" type="curve"/>
      <point x="0" y="208" type="line"/>
      <point x="-1" y="78"/>
      <point x="61" y="-14"/>
      <point x="227" y="-14" type="curve" smooth="yes"/>
      <point x="307" y="-14"/>
      <point x="360" y="13"/>
      <point x="394" y="50" type="curve" smooth="yes"/>
      <point x="434" y="92"/>
      <point x="448" y="148"/>
      <point x="448" y="194" type="curve" smooth="yes"/>
      <point x="448" y="264"/>
      <point x="416" y="312"/>
      <point x="394" y="345" type="curve" smooth="yes"/>
      <point x="372" y="377"/>
      <point x="343" y="402"/>
      <point x="317" y="427" type="curve" smooth="yes"/>
      <point x="296" y="447"/>
      <point x="288" y="456"/>
      <point x="261" y="480" type="curve" smooth="yes"/>
      <point x="232" y="506"/>
      <point x="226" y="531"/>
      <point x="226" y="553" type="curve" smooth="yes"/>
      <point x="226" y="558"/>
      <point x="227" y="566"/>
      <point x="231" y="570" type="curve" smooth="yes"/>
      <point x="233" y="573"/>
      <point x="235" y="574"/>
      <point x="237" y="574" type="curve" smooth="yes"/>
      <point x="251" y="574"/>
      <point x="254" y="556"/>
      <point x="253" y="515" type="curve"/>
    </contour>
  </outline>
</glyph>
<glyph name="T" format="1">
  <advance width="362"/>
  <unicode hex="0054"/>
  <outline>
    <contour>
      <point x="360" y="709" type="line"/>
      <point x="2" y="709" type="line"/>
      <point x="2" y="560" type="line"/>
      <point x="75" y="560" type="line"/>
      <point x="75" y="0" type="line"/>
      <point x="287" y="0" type="line"/>
      <point x="287" y="560" type="line"/>
      <point x="360" y="560" type="line"/>
    </contour>
  </outline>
</glyph>
<glyph name="U" format="1">
  <advance width="477"/>
  <unicode hex="0055"/>
  <outline>
    <contour>
      <point x="463" y="709" type="line"/>
      <point x="250" y="709" type="line"/>
      <point x="250" y="197" type="line" smooth="yes"/>
      <point x="250" y="151"/>
      <point x="246" y="135"/>
      <point x="238" y="135" type="curve" smooth="yes"/>
      <point x="231" y="135"/>
      <point x="227" y="150"/>
      <point x="227" y="197" type="curve" smooth="yes"/>
      <point x="227" y="709" type="line"/>
      <point x="14" y="709" type="line"/>
      <point x="14" y="177" type="line" smooth="yes"/>
      <point x="14" y="81"/>
      <point x="37" y="-14"/>
      <point x="237" y="-14" type="curve" smooth="yes"/>
      <point x="444" y="-14"/>
      <point x="463" y="86"/>
      <point x="463" y="174" type="curve" smooth="yes"/>
    </contour>
  </outline>
</glyph>
<glyph name="V" format="1">
  <advance width="457"/>
  <unicode hex="0056"/>
  <outline>
    <contour>
      <point x="224" y="131" type="line"/>
      <point x="222" y="194"/>
      <point x="221" y="232"/>
      <point x="220" y="269" type="curve" smooth="yes"/>
      <point x="201" y="709" type="line"/>
      <point x="-6" y="709" type="line"/>
      <point x="94" y="0" type="line"/>
      <point x="363" y="0" type="line"/>
      <point x="464" y="709" type="line"/>
      <point x="256" y="709" type="line"/>
      <point x="237" y="269" type="line" smooth="yes"/>
      <point x="236" y="231"/>
      <point x="235" y="193"/>
      <point x="234" y="131" type="curve"/>
    </contour>
  </outline>
</glyph>
<glyph name="W" format="1">
  <advance width="747"/>
  <unicode hex="0057"/>
  <outline>
    <contour>
      <point x="377" y="527" type="line"/>
      <point x="377" y="382"/>
      <point x="380" y="304"/>
      <point x="383" y="225" type="curve" smooth="yes"/>
      <point x="395" y="0" type="line"/>
      <point x="659" y="0" type="line"/>
      <point x="757" y="709" type="line"/>
      <point x="562" y="709" type="line"/>
      <point x="547" y="460" type="line" smooth="yes"/>
      <point x="542" y="384"/>
      <point x="541" y="306"/>
      <point x="536" y="183" type="curve"/>
      <point x="530" y="183" type="line"/>
      <point x="529" y="312"/>
      <point x="527" y="385"/>
      <point x="525" y="460" type="curve" smooth="yes"/>
      <point x="516" y="709" type="line"/>
      <point x="231" y="709" type="line"/>
      <point x="222" y="460" type="line" smooth="yes"/>
      <point x="219" y="387"/>
      <point x="218" y="312"/>
      <point x="217" y="183" type="curve"/>
      <point x="211" y="183" type="line"/>
      <point x="206" y="305"/>
      <point x="204" y="383"/>
      <point x="199" y="460" type="curve" smooth="yes"/>
      <point x="185" y="709" type="line"/>
      <point x="-11" y="709" type="line"/>
      <point x="88" y="0" type="line"/>
      <point x="351" y="0" type="line"/>
      <point x="364" y="217" type="line" smooth="yes"/>
      <point x="367" y="299"/>
      <point x="370" y="378"/>
      <point x="369" y="527" type="curve"/>
    </contour>
  </outline>
</glyph>
<glyph name="X" format="1">
  <advance width="435"/>
  <unicode hex="0058"/>
  <outline>
    <contour>
      <point x="218" y="431" type="line"/>
      <point x="214" y="431" type="line"/>
      <point x="190" y="709" type="line"/>
      <point x="-18" y="709" type="line"/>
      <point x="96" y="371" type="line"/>
      <point x="-18" y="0" type="line"/>
      <point x="187" y="0" type="line"/>
      <point x="214" y="261" type="line"/>
      <point x="218" y="261" type="line"/>
      <point x="246" y="0" type="line"/>
      <point x="450" y="0" type="line"/>
      <point x="337" y="371" type="line"/>
      <point x="450" y="709" type="line"/>
      <point x="243" y="709" type="line"/>
    </contour>
  </outline>
</glyph>
<glyph name="Y" format="1">
  <advance width="437"/>
  <unicode hex="0059"/>
  <outline>
    <contour>
      <point x="450" y="709" type="line"/>
      <point x="231" y="709" type="line"/>
      <point x="227" y="554" type="line" smooth="yes"/>
      <point x="225" y="494"/>
      <point x="223" y="432"/>
      <point x="221" y="345" type="curve"/>
      <point x="219" y="345" type="line"/>
      <point x="217" y="430"/>
      <point x="215" y="488"/>
      <point x="212" y="548" type="curve" smooth="yes"/>
      <point x="205" y="709" type="line"/>
      <point x="-14" y="709" type="line"/>
      <point x="115" y="251" type="line"/>
      <point x="115" y="0" type="line"/>
      <point x="328" y="0" type="line"/>
      <point x="328" y="251" type="line"/>
    </contour>
  </outline>
</glyph>
<glyph name="Z" format="1">
  <advance width="336"/>
  <unicode hex="005A"/>
  <outline>
    <contour>
      <point x="2" y="0" type="line"/>
      <point x="334" y="0" type="line"/>
      <point x="334" y="149" type="line"/>
      <point x="196" y="149" type="line"/>
      <point x="330" y="591" type="line"/>
      <point x="330" y="709" type="line"/>
      <point x="10" y="709" type="line"/>
      <point x="10" y="560" type="line"/>
      <point x="144" y="560" type="line"/>
      <point x="2" y="111" type="line"/>
    </contour>
  </outline>
</glyph>
<glyph name="bracketleft" format="1">
  <advance width="263"/>
  <unicode hex="005B"/>
  <outline>
    <contour>
      <point x="275" y="-156" type="line"/>
      <point x="275" y="-6" type="line"/>
      <point x="230" y="-6" type="line"/>
      <point x="230" y="589" type="line"/>
      <point x="275" y="589" type="line"/>
      <point x="275" y="739" type="line"/>
      <point x="28" y="739" type="line"/>
      <point x="28" y="-156" type="line"/>
    </contour>
  </outline>
</glyph>
<glyph name="backslash" format="1">
  <advance width="310"/>
  <unicode hex="005C"/>
  <outline>
    <contour>
      <point x="-14" y="739" type="line"/>
      <point x="162" y="-12" type="line"/>
      <point x="321" y="-12" type="line"/>
      <point x="144" y="739" type="line"/>
    </contour>
  </outline>
</glyph>
<glyph name="bracketright" format="1">
  <advance width="263"/>
  <unicode hex="005D"/>
  <outline>
    <contour>
      <point x="-10" y="-156" type="line"/>
      <point x="237" y="-156" type="line"/>
      <point x="237" y="739" type="line"/>
      <point x="-10" y="739" type="line"/>
      <point x="-10" y="589" type="line"/>
      <point x="34" y="589" type="line"/>
      <point x="34" y="-6" type="line"/>
      <point x="-10" y="-6" type="line"/>
    </contour>
  </outline>
</glyph>
<glyph name="underscore" format="1">
  <advance width="279"/>
  <unicode hex="005F"/>
  <outline>
    <contour>
      <point x="279" y="-125" type="line"/>
      <point x="279" y="-75" type="line"/>
      <point x="0" y="-75" type="line"/>
      <point x="0" y="-125" type="line"/>
    </contour>
  </outline>
</glyph>
<glyph name="a" format="1">
  <advance width="480"/>
  <unicode hex="0061"/>
  <outline>
    <contour>
      <point x="476" y="0" type="line"/>
      <point x="476" y="7" type="line"/>
      <point x="463" y="11"/>
      <point x="460" y="41"/>
      <point x="460" y="73" type="curve" smooth="yes"/>
      <point x="460" y="355" type="line" smooth="yes"/>
      <point x="460" y="506"/>
      <point x="368" y="544"/>
      <point x="244" y="544" type="curve" smooth="yes"/>
      <point x="74" y="544"/>
      <point x="31" y="447"/>
      <point x="34" y="369" type="curve"/>
      <point x="222" y="370" type="line"/>
      <point x="221" y="391"/>
      <point x="223" y="419"/>
      <point x="241" y="419" type="curve" smooth="yes"/>
      <point x="259" y="419"/>
      <point x="258" y="388"/>
      <point x="258" y="363" type="curve" smooth="yes"/>
      <point x="258" y="344" type="line"/>
      <point x="76" y="307"/>
      <point x="13" y="236"/>
      <point x="13" y="140" type="curve" smooth="yes"/>
      <point x="13" y="54"/>
      <point x="63" y="-12"/>
      <point x="168" y="-12" type="curve" smooth="yes"/>
      <point x="219" y="-12"/>
      <point x="246" y="7"/>
      <point x="262" y="18" type="curve"/>
      <point x="266" y="18" type="line"/>
      <point x="268" y="12"/>
      <point x="273" y="6"/>
      <point x="277" y="0" type="curve"/>
    </contour>
    <contour>
      <point x="258" y="145" type="line"/>
      <point x="254" y="138"/>
      <point x="249" y="133"/>
      <point x="240" y="133" type="curve" smooth="yes"/>
      <point x="227" y="133"/>
      <point x="220" y="149"/>
      <point x="220" y="163" type="curve" smooth="yes"/>
      <point x="220" y="191"/>
      <point x="241" y="217"/>
      <point x="258" y="222" type="curve"/>
    </contour>
  </outline>
</glyph>
<glyph name="b" format="1">
  <advance width="467"/>
  <unicode hex="0062"/>
  <outline>
    <contour>
      <point x="17" y="0" type="line"/>
      <point x="220" y="0" type="line"/>
      <point x="220" y="26" type="line"/>
      <point x="222" y="26" type="line"/>
      <point x="244" y="0"/>
      <point x="273" y="-12"/>
      <point x="307" y="-12" type="curve" smooth="yes"/>
      <point x="432" y="-12"/>
      <point x="453" y="162"/>
      <point x="453" y="268" type="curve" smooth="yes"/>
      <point x="453" y="429"/>
      <point x="411" y="544"/>
      <point x="305" y="544" type="curve" smooth="yes"/>
      <point x="269" y="544"/>
      <point x="244" y="529"/>
      <point x="222" y="509" type="curve"/>
      <point x="220" y="509" type="line"/>
      <point x="220" y="727" type="line"/>
      <point x="17" y="727" type="line"/>
    </contour>
    <contour>
      <point x="220" y="366" type="line"/>
      <point x="220" y="371"/>
      <point x="222" y="376"/>
      <point x="227" y="376" type="curve" smooth="yes"/>
      <point x="238" y="376"/>
      <point x="246" y="351"/>
      <point x="246" y="261" type="curve" smooth="yes"/>
      <point x="246" y="187"/>
      <point x="238" y="156"/>
      <point x="227" y="156" type="curve" smooth="yes"/>
      <point x="222" y="156"/>
      <point x="222" y="160"/>
      <point x="220" y="164" type="curve"/>
    </contour>
  </outline>
</glyph>
<glyph name="c" format="1">
  <advance width="453"/>
  <unicode hex="0063"/>
  <outline>
    <contour>
      <point x="440" y="303" type="line"/>
      <point x="442" y="465"/>
      <point x="362" y="544"/>
      <point x="230" y="544" type="curve" smooth="yes"/>
      <point x="87" y="544"/>
      <point x="14" y="434"/>
      <point x="14" y="267" type="curve" smooth="yes"/>
      <point x="14" y="138"/>
      <point x="50" y="-12"/>
      <point x="232" y="-12" type="curve" smooth="yes"/>
      <point x="378" y="-12"/>
      <point x="446" y="86"/>
      <point x="443" y="234" type="curve"/>
      <point x="242" y="232" type="line"/>
      <point x="244" y="172"/>
      <point x="245" y="122"/>
      <point x="231" y="122" type="curve" smooth="yes"/>
      <point x="218" y="122"/>
      <point x="221" y="166"/>
      <point x="221" y="266" type="curve" smooth="yes"/>
      <point x="221" y="376"/>
      <point x="220" y="410"/>
      <point x="231" y="410" type="curve" smooth="yes"/>
      <point x="244" y="410"/>
      <point x="244" y="372"/>
      <point x="242" y="305" type="curve"/>
    </contour>
  </outline>
</glyph>
<glyph name="d" format="1">
  <advance width="467"/>
  <unicode hex="0064"/>
  <outline>
    <contour>
      <point x="247" y="26" type="line"/>
      <point x="247" y="0" type="line"/>
      <point x="450" y="0" type="line"/>
      <point x="450" y="727" type="line"/>
      <point x="247" y="727" type="line"/>
      <point x="247" y="509" type="line"/>
      <point x="246" y="509" type="line"/>
      <point x="223" y="529"/>
      <point x="198" y="544"/>
      <point x="162" y="544" type="curve" smooth="yes"/>
      <point x="56" y="544"/>
      <point x="14" y="429"/>
      <point x="14" y="268" type="curve" smooth="yes"/>
      <point x="14" y="114"/>
      <point x="54" y="-12"/>
      <point x="160" y="-12" type="curve" smooth="yes"/>
      <point x="194" y="-12"/>
      <point x="223" y="0"/>
      <point x="246" y="26" type="curve"/>
    </contour>
    <contour>
      <point x="240" y="156" type="line"/>
      <point x="235" y="156"/>
      <point x="221" y="170"/>
      <point x="221" y="261" type="curve" smooth="yes"/>
      <point x="221" y="351"/>
      <point x="230" y="376"/>
      <point x="240" y="376" type="curve" smooth="yes"/>
      <point x="245" y="376"/>
      <point x="248" y="371"/>
      <point x="247" y="366" type="curve"/>
      <point x="247" y="164" type="line"/>
      <point x="245" y="159"/>
      <point x="244" y="156"/>
      <point x="241" y="156" type="curve"/>
    </contour>
  </outline>
</glyph>
<glyph name="e" format="1">
  <advance width="471"/>
  <unicode hex="0065"/>
  <outline>
    <contour>
      <point x="458" y="220" type="line"/>
      <point x="458" y="335"/>
      <point x="444" y="415"/>
      <point x="389" y="480" type="curve" smooth="yes"/>
      <point x="349" y="527"/>
      <point x="291" y="544"/>
      <point x="235" y="544" type="curve" smooth="yes"/>
      <point x="169" y="544"/>
      <point x="120" y="520"/>
      <point x="85" y="484" type="curve" smooth="yes"/>
      <point x="35" y="433"/>
      <point x="14" y="354"/>
      <point x="14" y="268" type="curve" smooth="yes"/>
      <point x="14" y="157"/>
      <point x="45" y="92"/>
      <point x="82" y="51" type="curve" smooth="yes"/>
      <point x="129" y="-1"/>
      <point x="191" y="-12"/>
      <point x="235" y="-12" type="curve" smooth="yes"/>
      <point x="304" y="-12"/>
      <point x="355" y="11"/>
      <point x="393" y="47" type="curve" smooth="yes"/>
      <point x="433" y="87"/>
      <point x="451" y="131"/>
      <point x="458" y="171" type="curve"/>
      <point x="258" y="170" type="line"/>
      <point x="260" y="138"/>
      <point x="256" y="113"/>
      <point x="240" y="113" type="curve" smooth="yes"/>
      <point x="220" y="113"/>
      <point x="220" y="145"/>
      <point x="221" y="220" type="curve"/>
    </contour>
    <contour>
      <point x="221" y="324" type="line"/>
      <point x="220" y="393"/>
      <point x="223" y="419"/>
      <point x="237" y="419" type="curve" smooth="yes"/>
      <point x="252" y="419"/>
      <point x="253" y="393"/>
      <point x="251" y="324" type="curve"/>
    </contour>
  </outline>
</glyph>
<glyph name="f" format="1">
  <advance width="252"/>
  <unicode hex="0066"/>
  <outline>
    <contour>
      <point x="265" y="730" type="line"/>
      <point x="260" y="731"/>
      <point x="252" y="733"/>
      <point x="240" y="735" type="curve" smooth="yes"/>
      <point x="226" y="737"/>
      <point x="208" y="739"/>
      <point x="189" y="739" type="curve" smooth="yes"/>
      <point x="134" y="739"/>
      <point x="92" y="725"/>
      <point x="63" y="699" type="curve" smooth="yes"/>
      <point x="31" y="671"/>
      <point x="15" y="627"/>
      <point x="15" y="553" type="curve" smooth="yes"/>
      <point x="15" y="532" type="line"/>
      <point x="-8" y="532" type="line"/>
      <point x="-8" y="398" type="line"/>
      <point x="15" y="398" type="line"/>
      <point x="15" y="0" type="line"/>
      <point x="218" y="0" type="line"/>
      <point x="218" y="398" type="line"/>
      <point x="244" y="398" type="line"/>
      <point x="244" y="532" type="line"/>
      <point x="218" y="532" type="line"/>
      <point x="218" y="566" type="line" smooth="yes"/>
      <point x="218" y="576"/>
      <point x="220" y="584"/>
      <point x="224" y="589" type="curve" smooth="yes"/>
      <point x="228" y="593"/>
      <point x="233" y="596"/>
      <point x="236" y="596" type="curve" smooth="yes"/>
      <point x="240" y="596"/>
      <point x="245" y="595"/>
      <point x="247" y="595" type="curve" smooth="yes"/>
      <point x="250" y="594"/>
      <point x="254" y="592"/>
      <point x="257" y="590" type="curve"/>
    </contour>
  </outline>
</glyph>
<glyph name="g" format="1">
  <advance width="466"/>
  <unicode hex="0067"/>
  <outline>
    <contour>
      <point x="247" y="501" type="line"/>
      <point x="245" y="501" type="line"/>
      <point x="229" y="529"/>
      <point x="197" y="544"/>
      <point x="160" y="544" type="curve" smooth="yes"/>
      <point x="48" y="544"/>
      <point x="14" y="423"/>
      <point x="14" y="273" type="curve" smooth="yes"/>
      <point x="14" y="96"/>
      <point x="60" y="-12"/>
      <point x="154" y="-12" type="curve" smooth="yes"/>
      <point x="199" y="-12"/>
      <point x="226" y="0"/>
      <point x="244" y="20" type="curve"/>
      <point x="246" y="20" type="line"/>
      <point x="246" y="12" type="line" smooth="yes"/>
      <point x="246" y="-32"/>
      <point x="247" y="-92"/>
      <point x="245" y="-109" type="curve" smooth="yes"/>
      <point x="244" y="-120"/>
      <point x="242" y="-127"/>
      <point x="237" y="-127" type="curve" smooth="yes"/>
      <point x="234" y="-127"/>
      <point x="229" y="-122"/>
      <point x="228" y="-115" type="curve" smooth="yes"/>
      <point x="225" y="-101"/>
      <point x="224" y="-83"/>
      <point x="224" y="-42" type="curve"/>
      <point x="27" y="-41" type="line"/>
      <point x="23" y="-122"/>
      <point x="45" y="-176"/>
      <point x="80" y="-211" type="curve" smooth="yes"/>
      <point x="122" y="-252"/>
      <point x="178" y="-261"/>
      <point x="236" y="-261" type="curve" smooth="yes"/>
      <point x="309" y="-261"/>
      <point x="360" y="-241"/>
      <point x="394" y="-201" type="curve" smooth="yes"/>
      <point x="434" y="-157"/>
      <point x="448" y="-89"/>
      <point x="448" y="-3" type="curve" smooth="yes"/>
      <point x="448" y="532" type="line"/>
      <point x="246" y="532" type="line"/>
    </contour>
    <contour>
      <point x="221" y="265" type="line"/>
      <point x="221" y="331"/>
      <point x="226" y="368"/>
      <point x="241" y="368" type="curve" smooth="yes"/>
      <point x="243" y="368"/>
      <point x="246" y="366"/>
      <point x="246" y="358" type="curve"/>
      <point x="246" y="171" type="line"/>
      <point x="247" y="167"/>
      <point x="244" y="164"/>
      <point x="241" y="164" type="curve" smooth="yes"/>
      <point x="229" y="164"/>
      <point x="221" y="183"/>
      <point x="221" y="264" type="curve"/>
    </contour>
  </outline>
</glyph>
<glyph name="i" format="1">
  <advance width="236"/>
  <unicode hex="0069"/>
  <outline>
    <contour>
      <point x="219" y="633" type="line"/>
      <point x="219" y="739" type="line"/>
      <point x="17" y="739" type="line"/>
      <point x="17" y="633" type="line"/>
    </contour>
    <contour>
      <point x="219" y="532" type="line"/>
      <point x="17" y="532" type="line"/>
      <point x="17" y="0" type="line"/>
      <point x="219" y="0" type="line"/>
    </contour>
  </outline>
</glyph>
<glyph name="j" format="1">
  <advance width="236"/>
  <unicode hex="006A"/>
  <outline>
    <contour>
      <point x="218" y="633" type="line"/>
      <point x="218" y="739" type="line"/>
      <point x="16" y="739" type="line"/>
      <point x="16" y="633" type="line"/>
    </contour>
    <contour>
      <point x="-80" y="-210" type="line"/>
      <point x="-61" y="-217"/>
      <point x="-44" y="-221"/>
      <point x="-27" y="-224" type="curve" smooth="yes"/>
      <point x="-5" y="-228"/>
      <point x="14" y="-230"/>
      <point x="33" y="-230" type="curve" smooth="yes"/>
      <point x="90" y="-230"/>
      <point x="136" y="-214"/>
      <point x="168" y="-171" type="curve" smooth="yes"/>
      <point x="203" y="-123"/>
      <point x="219" y="-52"/>
      <point x="219" y="63" type="curve" smooth="yes"/>
      <point x="219" y="532" type="line"/>
      <point x="17" y="532" type="line"/>
      <point x="17" y="-5" type="line" smooth="yes"/>
      <point x="17" y="-37"/>
      <point x="14" y="-56"/>
      <point x="7" y="-69" type="curve" smooth="yes"/>
      <point x="4" y="-74"/>
      <point x="-8" y="-83"/>
      <point x="-18" y="-83" type="curve" smooth="yes"/>
      <point x="-27" y="-83"/>
      <point x="-34" y="-81"/>
      <point x="-40" y="-79" type="curve" smooth="yes"/>
      <point x="-46" y="-76"/>
      <point x="-54" y="-72"/>
      <point x="-57" y="-67" type="curve"/>
    </contour>
  </outline>
</glyph>
<glyph name="k" format="1">
  <advance width="456"/>
  <unicode hex="006B"/>
  <outline>
    <contour>
      <point x="337" y="319" type="line"/>
      <point x="470" y="532" type="line"/>
      <point x="276" y="532" type="line"/>
      <point x="247" y="460" type="line" smooth="yes"/>
      <point x="238" y="436"/>
      <point x="230" y="412"/>
      <point x="225" y="391" type="curve"/>
      <point x="218" y="391" type="line"/>
      <point x="220" y="422"/>
      <point x="220" y="437"/>
      <point x="220" y="460" type="curve" smooth="yes"/>
      <point x="220" y="727" type="line"/>
      <point x="17" y="727" type="line"/>
      <point x="17" y="0" type="line"/>
      <point x="220" y="0" type="line"/>
      <point x="220" y="144" type="line"/>
      <point x="226" y="155" type="line"/>
      <point x="252" y="0" type="line"/>
      <point x="472" y="0" type="line"/>
    </contour>
  </outline>
</glyph>
<glyph name="m" format="1">
  <advance width="683"/>
  <unicode hex="006D"/>
  <outline>
    <contour>
      <point x="669" y="0" type="line"/>
      <point x="669" y="370" type="line" smooth="yes"/>
      <point x="669" y="444"/>
      <point x="655" y="482"/>
      <point x="633" y="508" type="curve" smooth="yes"/>
      <point x="615" y="531"/>
      <point x="582" y="544"/>
      <point x="543" y="544" type="curve" smooth="yes"/>
      <point x="519" y="544"/>
      <point x="498" y="538"/>
      <point x="480" y="530" type="curve" smooth="yes"/>
      <point x="457" y="520"/>
      <point x="442" y="505"/>
      <point x="436" y="497" type="curve"/>
      <point x="433" y="497" type="line"/>
      <point x="425" y="509"/>
      <point x="415" y="519"/>
      <point x="404" y="527" type="curve" smooth="yes"/>
      <point x="387" y="538"/>
      <point x="367" y="544"/>
      <point x="344" y="544" type="curve" smooth="yes"/>
      <point x="319" y="544"/>
      <point x="296" y="539"/>
      <point x="275" y="532" type="curve" smooth="yes"/>
      <point x="255" y="524"/>
      <point x="237" y="513"/>
      <point x="224" y="502" type="curve"/>
      <point x="219" y="502" type="line"/>
      <point x="220" y="532" type="line"/>
      <point x="17" y="532" type="line"/>
      <point x="17" y="0" type="line"/>
      <point x="220" y="0" type="line"/>
      <point x="220" y="353" type="line"/>
      <point x="219" y="360"/>
      <point x="220" y="362"/>
      <point x="221" y="366" type="curve" smooth="yes"/>
      <point x="222" y="370"/>
      <point x="224" y="372"/>
      <point x="228" y="372" type="curve" smooth="yes"/>
      <point x="232" y="372"/>
      <point x="234" y="368"/>
      <point x="236" y="361" type="curve" smooth="yes"/>
      <point x="240" y="350"/>
      <point x="242" y="321"/>
      <point x="242" y="281" type="curve" smooth="yes"/>
      <point x="242" y="0" type="line"/>
      <point x="444" y="0" type="line"/>
      <point x="444" y="354" type="line"/>
      <point x="444" y="360"/>
      <point x="444" y="362"/>
      <point x="446" y="366" type="curve" smooth="yes"/>
      <point x="447" y="370"/>
      <point x="448" y="372"/>
      <point x="452" y="372" type="curve" smooth="yes"/>
      <point x="456" y="372"/>
      <point x="458" y="368"/>
      <point x="460" y="361" type="curve" smooth="yes"/>
      <point x="465" y="350"/>
      <point x="466" y="321"/>
      <point x="466" y="281" type="curve" smooth="yes"/>
      <point x="466" y="0" type="line"/>
    </contour>
  </outline>
</glyph>
<glyph name="n" format="1">
  <advance width="457"/>
  <unicode hex="006E"/>
  <outline>
    <contour>
      <point x="443" y="0" type="line"/>
      <point x="443" y="370" type="line" smooth="yes"/>
      <point x="443" y="431"/>
      <point x="431" y="477"/>
      <point x="413" y="503" type="curve" smooth="yes"/>
      <point x="396" y="527"/>
      <point x="368" y="544"/>
      <point x="327" y="544" type="curve" smooth="yes"/>
      <point x="306" y="544"/>
      <point x="285" y="540"/>
      <point x="266" y="533" type="curve" smooth="yes"/>
      <point x="252" y="526"/>
      <point x="239" y="518"/>
      <point x="226" y="507" type="curve"/>
      <point x="219" y="507" type="line"/>
      <point x="220" y="532" type="line"/>
      <point x="17" y="532" type="line"/>
      <point x="17" y="0" type="line"/>
      <point x="220" y="0" type="line"/>
      <point x="220" y="359" type="line"/>
      <point x="220" y="363"/>
      <point x="220" y="366"/>
      <point x="221" y="368" type="curve" smooth="yes"/>
      <point x="222" y="370"/>
      <point x="224" y="371"/>
      <point x="225" y="371" type="curve" smooth="yes"/>
      <point x="230" y="371"/>
      <point x="233" y="368"/>
      <point x="235" y="361" type="curve" smooth="yes"/>
      <point x="238" y="349"/>
      <point x="240" y="323"/>
      <point x="240" y="276" type="curve" smooth="yes"/>
      <point x="240" y="0" type="line"/>
    </contour>
  </outline>
</glyph>
<glyph name="o" format="1">
  <advance width="462"/>
  <unicode hex="006F"/>
  <outline>
    <contour>
      <point x="448" y="266" type="line"/>
      <point x="448" y="482"/>
      <point x="330" y="544"/>
      <point x="231" y="544" type="curve" smooth="yes"/>
      <point x="132" y="544"/>
      <point x="14" y="482"/>
      <point x="14" y="266" type="curve" smooth="yes"/>
      <point x="14" y="123"/>
      <point x="67" y="-12"/>
      <point x="231" y="-12" type="curve" smooth="yes"/>
      <point x="389" y="-12"/>
      <point x="448" y="113"/>
      <point x="448" y="265" type="curve"/>
    </contour>
    <contour>
      <point x="231" y="122" type="line"/>
      <point x="217" y="122"/>
      <point x="221" y="169"/>
      <point x="221" y="265" type="curve" smooth="yes"/>
      <point x="221" y="353"/>
      <point x="216" y="410"/>
      <point x="231" y="410" type="curve" smooth="yes"/>
      <point x="246" y="410"/>
      <point x="241" y="357"/>
      <point x="241" y="265" type="curve" smooth="yes"/>
      <point x="241" y="179"/>
      <point x="247" y="122"/>
      <point x="232" y="122" type="curve"/>
    </contour>
  </outline>
</glyph>
<glyph name="p" format="1">
  <advance width="467"/>
  <unicode hex="0070"/>
  <outline>
    <contour>
      <point x="17" y="-248" type="line"/>
      <point x="220" y="-248" type="line"/>
      <point x="220" y="26" type="line"/>
      <point x="222" y="26" type="line"/>
      <point x="234" y="12"/>
      <point x="246" y="3"/>
      <point x="260" y="-3" type="curve" smooth="yes"/>
      <point x="276" y="-10"/>
      <point x="292" y="-12"/>
      <point x="307" y="-12" type="curve" smooth="yes"/>
      <point x="348" y="-12"/>
      <point x="383" y="9"/>
      <point x="407" y="48" type="curve" smooth="yes"/>
      <point x="433" y="90"/>
      <point x="453" y="173"/>
      <point x="453" y="268" type="curve" smooth="yes"/>
      <point x="453" y="385"/>
      <point x="430" y="457"/>
      <point x="397" y="498" type="curve" smooth="yes"/>
      <point x="372" y="530"/>
      <point x="341" y="544"/>
      <point x="305" y="544" type="curve" smooth="yes"/>
      <point x="285" y="544"/>
      <point x="268" y="539"/>
      <point x="253" y="532" type="curve" smooth="yes"/>
      <point x="239" y="524"/>
      <point x="229" y="515"/>
      <point x="221" y="507" type="curve"/>
      <point x="219" y="507" type="line"/>
      <point x="220" y="532" type="line"/>
      <point x="17" y="532" type="line"/>
    </contour>
    <contour>
      <point x="220" y="366" type="line"/>
      <point x="219" y="369"/>
      <point x="220" y="371"/>
      <point x="222" y="373" type="curve" smooth="yes"/>
      <point x="222" y="375"/>
      <point x="225" y="376"/>
      <point x="227" y="376" type="curve" smooth="yes"/>
      <point x="231" y="376"/>
      <point x="234" y="372"/>
      <point x="238" y="360" type="curve" smooth="yes"/>
      <point x="245" y="342"/>
      <point x="246" y="316"/>
      <point x="246" y="261" type="curve" smooth="yes"/>
      <point x="246" y="205"/>
      <point x="242" y="182"/>
      <point x="238" y="170" type="curve" smooth="yes"/>
      <point x="235" y="161"/>
      <point x="230" y="156"/>
      <point x="227" y="156" type="curve" smooth="yes"/>
      <point x="225" y="156"/>
      <point x="225" y="156"/>
      <point x="223" y="158" type="curve" smooth="yes"/>
      <point x="221" y="160"/>
      <point x="221" y="161"/>
      <point x="220" y="164" type="curve"/>
    </contour>
  </outline>
</glyph>
<glyph name="q" format="1">
  <advance width="467"/>
  <unicode hex="0071"/>
  <outline>
    <contour>
      <point x="450" y="-248" type="line"/>
      <point x="450" y="532" type="line"/>
      <point x="247" y="532" type="line"/>
      <point x="247" y="509" type="line"/>
      <point x="246" y="509" type="line"/>
      <point x="238" y="516"/>
      <point x="227" y="525"/>
      <point x="214" y="532" type="curve" smooth="yes"/>
      <point x="200" y="539"/>
      <point x="183" y="544"/>
      <point x="162" y="544" type="curve" smooth="yes"/>
      <point x="126" y="544"/>
      <point x="95" y="530"/>
      <point x="70" y="498" type="curve" smooth="yes"/>
      <point x="38" y="458"/>
      <point x="14" y="386"/>
      <point x="14" y="268" type="curve" smooth="yes"/>
      <point x="14" y="180"/>
      <point x="32" y="93"/>
      <point x="62" y="46" type="curve" smooth="yes"/>
      <point x="88" y="6"/>
      <point x="120" y="-12"/>
      <point x="160" y="-12" type="curve" smooth="yes"/>
      <point x="175" y="-12"/>
      <point x="191" y="-10"/>
      <point x="207" y="-3" type="curve" smooth="yes"/>
      <point x="221" y="3"/>
      <point x="233" y="12"/>
      <point x="246" y="26" type="curve"/>
      <point x="247" y="26" type="line"/>
      <point x="247" y="-248" type="line"/>
    </contour>
    <contour>
      <point x="247" y="164" type="line"/>
      <point x="246" y="161"/>
      <point x="247" y="160"/>
      <point x="244" y="158" type="curve" smooth="yes"/>
      <point x="243" y="156"/>
      <point x="242" y="156"/>
      <point x="240" y="156" type="curve" smooth="yes"/>
      <point x="237" y="156"/>
      <point x="234" y="160"/>
      <point x="229" y="171" type="curve" smooth="yes"/>
      <point x="225" y="182"/>
      <point x="221" y="200"/>
      <point x="221" y="262" type="curve" smooth="yes"/>
      <point x="221" y="309"/>
      <point x="223" y="339"/>
      <point x="227" y="355" type="curve" smooth="yes"/>
      <point x="231" y="371"/>
      <point x="235" y="376"/>
      <point x="240" y="376" type="curve" smooth="yes"/>
      <point x="242" y="376"/>
      <point x="245" y="375"/>
      <point x="245" y="373" type="curve" smooth="yes"/>
      <point x="247" y="371"/>
      <point x="248" y="369"/>
      <point x="247" y="366" type="curve"/>
    </contour>
  </outline>
</glyph>
<glyph name="r" format="1">
  <advance width="315"/>
  <unicode hex="0072"/>
  <outline>
    <contour>
      <point x="219" y="494" type="line"/>
      <point x="220" y="532" type="line"/>
      <point x="17" y="532" type="line"/>
      <point x="17" y="0" type="line"/>
      <point x="220" y="0" type="line"/>
      <point x="220" y="309" type="line"/>
      <point x="230" y="330"/>
      <point x="238" y="343"/>
      <point x="248" y="354" type="curve" smooth="yes"/>
      <point x="263" y="370"/>
      <point x="271" y="373"/>
      <point x="283" y="373" type="curve" smooth="yes"/>
      <point x="289" y="373"/>
      <point x="294" y="371"/>
      <point x="301" y="368" type="curve" smooth="yes"/>
      <point x="306" y="364"/>
      <point x="311" y="360"/>
      <point x="315" y="355" type="curve"/>
      <point x="325" y="532" type="line"/>
      <point x="319" y="536"/>
      <point x="313" y="539"/>
      <point x="306" y="541" type="curve" smooth="yes"/>
      <point x="300" y="543"/>
      <point x="292" y="544"/>
      <point x="284" y="544" type="curve" smooth="yes"/>
      <point x="267" y="544"/>
      <point x="254" y="537"/>
      <point x="244" y="527" type="curve" smooth="yes"/>
      <point x="234" y="517"/>
      <point x="227" y="506"/>
      <point x="222" y="494" type="curve"/>
    </contour>
  </outline>
</glyph>
<glyph name="s" format="1">
  <advance width="440"/>
  <unicode hex="0073"/>
  <outline>
    <contour>
      <point x="418" y="371" type="line"/>
      <point x="419" y="416"/>
      <point x="405" y="455"/>
      <point x="376" y="484" type="curve" smooth="yes"/>
      <point x="340" y="520"/>
      <point x="285" y="544"/>
      <point x="211" y="544" type="curve" smooth="yes"/>
      <point x="156" y="544"/>
      <point x="107" y="528"/>
      <point x="71" y="499" type="curve" smooth="yes"/>
      <point x="35" y="470"/>
      <point x="13" y="426"/>
      <point x="13" y="375" type="curve" smooth="yes"/>
      <point x="13" y="338"/>
      <point x="29" y="298"/>
      <point x="51" y="270" type="curve" smooth="yes"/>
      <point x="73" y="243"/>
      <point x="106" y="220"/>
      <point x="140" y="207" type="curve" smooth="yes"/>
      <point x="170" y="193"/>
      <point x="194" y="181"/>
      <point x="203" y="173" type="curve" smooth="yes"/>
      <point x="215" y="162"/>
      <point x="223" y="148"/>
      <point x="223" y="138" type="curve" smooth="yes"/>
      <point x="223" y="131"/>
      <point x="222" y="123"/>
      <point x="221" y="120" type="curve" smooth="yes"/>
      <point x="218" y="115"/>
      <point x="214" y="113"/>
      <point x="209" y="113" type="curve" smooth="yes"/>
      <point x="195" y="113"/>
      <point x="187" y="131"/>
      <point x="188" y="157" type="curve"/>
      <point x="11" y="158" type="line"/>
      <point x="9" y="112"/>
      <point x="28" y="63"/>
      <point x="73" y="30" type="curve" smooth="yes"/>
      <point x="106" y="4"/>
      <point x="155" y="-12"/>
      <point x="220" y="-12" type="curve" smooth="yes"/>
      <point x="288" y="-12"/>
      <point x="344" y="7"/>
      <point x="381" y="41" type="curve" smooth="yes"/>
      <point x="413" y="71"/>
      <point x="431" y="111"/>
      <point x="431" y="155" type="curve" smooth="yes"/>
      <point x="431" y="206"/>
      <point x="415" y="240"/>
      <point x="390" y="266" type="curve" smooth="yes"/>
      <point x="367" y="293"/>
      <point x="324" y="318"/>
      <point x="297" y="331" type="curve" smooth="yes"/>
      <point x="267" y="346"/>
      <point x="241" y="356"/>
      <point x="231" y="363" type="curve" smooth="yes"/>
      <point x="216" y="372"/>
      <point x="210" y="383"/>
      <point x="210" y="395" type="curve" smooth="yes"/>
      <point x="210" y="404"/>
      <point x="212" y="410"/>
      <point x="214" y="413" type="curve" smooth="yes"/>
      <point x="217" y="416"/>
      <point x="221" y="419"/>
      <point x="226" y="419" type="curve" smooth="yes"/>
      <point x="242" y="419"/>
      <point x="246" y="396"/>
      <point x="246" y="371" type="curve"/>
    </contour>
  </outline>
</glyph>
<glyph name="t" format="1">
  <advance width="247"/>
  <unicode hex="0074"/>
  <outline>
    <contour>
      <point x="17" y="532" type="line"/>
      <point x="-6" y="532" type="line"/>
      <point x="-6" y="398" type="line"/>
      <point x="17" y="398" type="line"/>
      <point x="17" y="174" type="line" smooth="yes"/>
      <point x="17" y="48"/>
      <point x="69" y="-12"/>
      <point x="172" y="-12" type="curve" smooth="yes"/>
      <point x="215" y="-12"/>
      <point x="229" y="-7"/>
      <point x="253" y="1" type="curve"/>
      <point x="247" y="140" type="line"/>
      <point x="243" y="135"/>
      <point x="241" y="134"/>
      <point x="236" y="134" type="curve" smooth="yes"/>
      <point x="222" y="134"/>
      <point x="220" y="159"/>
      <point x="220" y="214" type="curve" smooth="yes"/>
      <point x="220" y="398" type="line"/>
      <point x="244" y="398" type="line"/>
      <point x="244" y="532" type="line"/>
      <point x="220" y="532" type="line"/>
      <point x="220" y="645" type="line"/>
      <point x="17" y="645" type="line"/>
    </contour>
  </outline>
</glyph>
<glyph name="u" format="1">
  <advance width="457"/>
  <unicode hex="0075"/>
  <outline>
    <contour>
      <point x="16" y="532" type="line"/>
      <point x="16" y="162" type="line" smooth="yes"/>
      <point x="16" y="101"/>
      <point x="27" y="55"/>
      <point x="45" y="29" type="curve" smooth="yes"/>
      <point x="63" y="5"/>
      <point x="90" y="-12"/>
      <point x="130" y="-12" type="curve" smooth="yes"/>
      <point x="159" y="-12"/>
      <point x="181" y="-8"/>
      <point x="197" y="4" type="curve" smooth="yes"/>
      <point x="212" y="15"/>
      <point x="225" y="31"/>
      <point x="232" y="45" type="curve"/>
      <point x="239" y="45" type="line"/>
      <point x="238" y="0" type="line"/>
      <point x="440" y="0" type="line"/>
      <point x="440" y="532" type="line"/>
      <point x="238" y="532" type="line"/>
      <point x="238" y="174" type="line"/>
      <point x="237" y="169"/>
      <point x="236" y="166"/>
      <point x="235" y="164" type="curve" smooth="yes"/>
      <point x="235" y="162"/>
      <point x="233" y="161"/>
      <point x="232" y="161" type="curve" smooth="yes"/>
      <point x="228" y="161"/>
      <point x="226" y="164"/>
      <point x="223" y="171" type="curve" smooth="yes"/>
      <point x="220" y="183"/>
      <point x="218" y="209"/>
      <point x="218" y="256" type="curve" smooth="yes"/>
      <point x="218" y="532" type="line"/>
    </contour>
  </outline>
</glyph>
<glyph name="v" format="1">
  <advance width="394"/>
  <unicode hex="0076"/>
  <outline>
    <contour>
      <point x="194" y="148" type="line"/>
      <point x="195" y="217"/>
      <point x="195" y="288"/>
      <point x="193" y="354" type="curve" smooth="yes"/>
      <point x="188" y="532" type="line"/>
      <point x="-16" y="532" type="line"/>
      <point x="89" y="0" type="line"/>
      <point x="305" y="0" type="line"/>
      <point x="410" y="532" type="line"/>
      <point x="205" y="532" type="line"/>
      <point x="201" y="354" type="line" smooth="yes"/>
      <point x="199" y="274"/>
      <point x="200" y="217"/>
      <point x="200" y="148" type="curve"/>
    </contour>
  </outline>
</glyph>
<glyph name="w" format="1">
  <advance width="561"/>
  <unicode hex="0077"/>
  <outline>
    <contour>
      <point x="285" y="355" type="line"/>
      <point x="287" y="264"/>
      <point x="286" y="218"/>
      <point x="287" y="172" type="curve" smooth="yes"/>
      <point x="293" y="0" type="line"/>
      <point x="519" y="0" type="line"/>
      <point x="572" y="532" type="line"/>
      <point x="410" y="532" type="line"/>
      <point x="406" y="368" type="line" smooth="yes"/>
      <point x="404" y="313"/>
      <point x="404" y="258"/>
      <point x="403" y="176" type="curve"/>
      <point x="397" y="176" type="line"/>
      <point x="396" y="254"/>
      <point x="395" y="306"/>
      <point x="394" y="358" type="curve" smooth="yes"/>
      <point x="388" y="532" type="line"/>
      <point x="174" y="532" type="line"/>
      <point x="167" y="359" type="line" smooth="yes"/>
      <point x="165" y="307"/>
      <point x="165" y="255"/>
      <point x="163" y="176" type="curve"/>
      <point x="157" y="176" type="line"/>
      <point x="156" y="257"/>
      <point x="157" y="313"/>
      <point x="156" y="368" type="curve" smooth="yes"/>
      <point x="153" y="532" type="line"/>
      <point x="-11" y="532" type="line"/>
      <point x="43" y="0" type="line"/>
      <point x="269" y="0" type="line"/>
      <point x="276" y="172" type="line" smooth="yes"/>
      <point x="277" y="218"/>
      <point x="278" y="263"/>
      <point x="279" y="355" type="curve"/>
    </contour>
  </outline>
</glyph>
<glyph name="x" format="1">
  <advance width="437"/>
  <unicode hex="0078"/>
  <outline>
    <contour>
      <point x="442" y="532" type="line"/>
      <point x="233" y="532" type="line"/>
      <point x="220" y="377" type="line"/>
      <point x="216" y="377" type="line"/>
      <point x="204" y="532" type="line"/>
      <point x="-5" y="532" type="line"/>
      <point x="-5" y="520" type="line"/>
      <point x="102" y="264" type="line"/>
      <point x="-7" y="9" type="line"/>
      <point x="-7" y="0" type="line"/>
      <point x="205" y="0" type="line"/>
      <point x="217" y="155" type="line"/>
      <point x="219" y="155" type="line"/>
      <point x="231" y="0" type="line"/>
      <point x="444" y="0" type="line"/>
      <point x="444" y="9" type="line"/>
      <point x="334" y="264" type="line"/>
      <point x="442" y="520" type="line"/>
    </contour>
  </outline>
</glyph>
<glyph name="y" format="1">
  <advance width="413"/>
  <unicode hex="0079"/>
  <outline>
    <contour>
      <point x="419" y="532" type="line"/>
      <point x="228" y="532" type="line"/>
      <point x="218" y="409" type="line" smooth="yes"/>
      <point x="214" y="369"/>
      <point x="212" y="328"/>
      <point x="211" y="250" type="curve"/>
      <point x="204" y="250" type="line"/>
      <point x="203" y="324"/>
      <point x="200" y="367"/>
      <point x="197" y="406" type="curve" smooth="yes"/>
      <point x="186" y="532" type="line"/>
      <point x="-17" y="532" type="line"/>
      <point x="127" y="20" type="line"/>
      <point x="109" y="-61" type="line" smooth="yes"/>
      <point x="105" y="-84"/>
      <point x="100" y="-99"/>
      <point x="94" y="-110" type="curve" smooth="yes"/>
      <point x="89" y="-119"/>
      <point x="83" y="-124"/>
      <point x="74" y="-124" type="curve" smooth="yes"/>
      <point x="69" y="-124"/>
      <point x="60" y="-121"/>
      <point x="54" y="-117" type="curve" smooth="yes"/>
      <point x="48" y="-113"/>
      <point x="41" y="-107"/>
      <point x="39" y="-103" type="curve"/>
      <point x="-1" y="-235" type="line"/>
      <point x="11" y="-242"/>
      <point x="27" y="-249"/>
      <point x="46" y="-253" type="curve" smooth="yes"/>
      <point x="61" y="-258"/>
      <point x="79" y="-261"/>
      <point x="99" y="-261" type="curve" smooth="yes"/>
      <point x="157" y="-261"/>
      <point x="195" y="-243"/>
      <point x="223" y="-218" type="curve" smooth="yes"/>
      <point x="254" y="-190"/>
      <point x="278" y="-129"/>
      <point x="290" y="-70" type="curve" smooth="yes"/>
    </contour>
  </outline>
</glyph>
<glyph name="z" format="1">
  <advance width="317"/>
  <unicode hex="007A"/>
  <outline>
    <contour>
      <point x="307" y="532" type="line"/>
      <point x="13" y="532" type="line"/>
      <point x="13" y="398" type="line"/>
      <point x="113" y="398" type="line"/>
      <point x="6" y="115" type="line"/>
      <point x="6" y="0" type="line"/>
      <point x="311" y="0" type="line"/>
      <point x="311" y="134" type="line"/>
      <point x="207" y="134" type="line"/>
      <point x="307" y="418" type="line"/>
    </contour>
  </outline>
</glyph>
<glyph name="braceleft" format="1">
  <advance width="302"/>
  <unicode hex="007B"/>
  <outline>
    <contour>
      <point x="12" y="217" type="line"/>
      <point x="21" y="216"/>
      <point x="31" y="214"/>
      <point x="40" y="204" type="curve" smooth="yes"/>
      <point x="48" y="194"/>
      <point x="55" y="176"/>
      <point x="55" y="144" type="curve" smooth="yes"/>
      <point x="55" y="52" type="line" smooth="yes"/>
      <point x="55" y="-25"/>
      <point x="77" y="-73"/>
      <point x="116" y="-104" type="curve" smooth="yes"/>
      <point x="181" y="-155"/>
      <point x="285" y="-155"/>
      <point x="321" y="-155" type="curve"/>
      <point x="321" y="-5" type="line"/>
      <point x="300" y="-5"/>
      <point x="284" y="0"/>
      <point x="273" y="16" type="curve" smooth="yes"/>
      <point x="263" y="32"/>
      <point x="258" y="59"/>
      <point x="258" y="102" type="curve" smooth="yes"/>
      <point x="258" y="146" type="line" smooth="yes"/>
      <point x="258" y="204"/>
      <point x="241" y="240"/>
      <point x="213" y="261" type="curve" smooth="yes"/>
      <point x="185" y="282"/>
      <point x="149" y="290"/>
      <point x="110" y="290" type="curve"/>
      <point x="110" y="294" type="line"/>
      <point x="149" y="294"/>
      <point x="186" y="301"/>
      <point x="213" y="323" type="curve" smooth="yes"/>
      <point x="241" y="345"/>
      <point x="258" y="381"/>
      <point x="258" y="438" type="curve" smooth="yes"/>
      <point x="258" y="482" type="line" smooth="yes"/>
      <point x="258" y="526"/>
      <point x="263" y="552"/>
      <point x="273" y="568" type="curve" smooth="yes"/>
      <point x="284" y="584"/>
      <point x="300" y="589"/>
      <point x="321" y="589" type="curve"/>
      <point x="321" y="739" type="line"/>
      <point x="285" y="739"/>
      <point x="181" y="738"/>
      <point x="116" y="688" type="curve" smooth="yes"/>
      <point x="77" y="657"/>
      <point x="55" y="609"/>
      <point x="55" y="532" type="curve" smooth="yes"/>
      <point x="55" y="440" type="line" smooth="yes"/>
      <point x="55" y="408"/>
      <point x="48" y="390"/>
      <point x="40" y="380" type="curve" smooth="yes"/>
      <point x="31" y="370"/>
      <point x="21" y="368"/>
      <point x="12" y="367" type="curve"/>
    </contour>
  </outline>
</glyph>
<glyph name="bar" format="1">
  <advance width="242"/>
  <unicode hex="007C"/>
  <outline>
    <contour>
      <point x="44" y="-250" type="line"/>
      <point x="198" y="-250" type="line"/>
      <point x="198" y="750" type="line"/>
      <point x="44" y="750" type="line"/>
    </contour>
  </outline>
</glyph>
<glyph name="braceright" format="1">
  <advance width="302"/>
  <unicode hex="007D"/>
  <outline>
    <contour>
      <point x="290" y="367" type="line"/>
      <point x="282" y="368"/>
      <point x="271" y="370"/>
      <point x="262" y="380" type="curve" smooth="yes"/>
      <point x="253" y="390"/>
      <point x="246" y="408"/>
      <point x="246" y="440" type="curve" smooth="yes"/>
      <point x="246" y="532" type="line" smooth="yes"/>
      <point x="246" y="609"/>
      <point x="224" y="657"/>
      <point x="185" y="688" type="curve" smooth="yes"/>
      <point x="121" y="739"/>
      <point x="10" y="739"/>
      <point x="-20" y="739" type="curve"/>
      <point x="-20" y="589" type="line"/>
      <point x="3" y="589"/>
      <point x="18" y="584"/>
      <point x="28" y="568" type="curve" smooth="yes"/>
      <point x="39" y="552"/>
      <point x="44" y="526"/>
      <point x="44" y="482" type="curve" smooth="yes"/>
      <point x="44" y="438" type="line" smooth="yes"/>
      <point x="44" y="381"/>
      <point x="62" y="345"/>
      <point x="89" y="323" type="curve" smooth="yes"/>
      <point x="115" y="301"/>
      <point x="153" y="294"/>
      <point x="192" y="294" type="curve"/>
      <point x="192" y="290" type="line"/>
      <point x="153" y="290"/>
      <point x="115" y="283"/>
      <point x="89" y="261" type="curve" smooth="yes"/>
      <point x="62" y="239"/>
      <point x="44" y="204"/>
      <point x="44" y="146" type="curve" smooth="yes"/>
      <point x="44" y="102" type="line" smooth="yes"/>
      <point x="44" y="59"/>
      <point x="39" y="32"/>
      <point x="28" y="16" type="curve" smooth="yes"/>
      <point x="18" y="0"/>
      <point x="3" y="-5"/>
      <point x="-20" y="-5" type="curve"/>
      <point x="-20" y="-155" type="line"/>
      <point x="10" y="-155"/>
      <point x="121" y="-154"/>
      <point x="185" y="-104" type="curve" smooth="yes"/>
      <point x="224" y="-73"/>
      <point x="246" y="-25"/>
      <point x="246" y="52" type="curve" smooth="yes"/>
      <point x="246" y="144" type="line" smooth="yes"/>
      <point x="246" y="176"/>
      <point x="253" y="194"/>
      <point x="262" y="204" type="curve" smooth="yes"/>
      <point x="271" y="214"/>
      <point x="282" y="216"/>
      <point x="290" y="217" type="curve"/>
    </contour>
  </outline>
</glyph>
<glyph name="paragraph" format="1">
  <advance width="487"/>
  <unicode hex="00B6"/>
  <outline>
    <contour>
      <point x="180" y="-152" type="line"/>
      <point x="311" y="-152" type="line"/>
      <point x="311" y="618" type="line"/>
      <point x="329" y="618" type="line"/>
      <point x="329" y="-152" type="line"/>
      <point x="460" y="-152" type="line"/>
      <point x="460" y="709" type="line"/>
      <point x="196" y="709" type="line" smooth="yes"/>
      <point x="135" y="709"/>
      <point x="91" y="692"/>
      <point x="61" y="658" type="curve" smooth="yes"/>
      <point x="20" y="614"/>
      <point x="1" y="559"/>
      <point x="1" y="495" type="curve" smooth="yes"/>
      <point x="1" y="436"/>
      <point x="18" y="382"/>
      <point x="50" y="343" type="curve" smooth="yes"/>
      <point x="85" y="302"/>
      <point x="131" y="280"/>
      <point x="180" y="281" type="curve"/>
    </contour>
  </outline>
</glyph>
<glyph name="Aacute" format="1">
  <advance width="432"/>
  <unicode hex="00C1"/>
  <outline>
    <contour>
      <point x="231" y="144" type="line"/>
      <point x="234" y="0" type="line"/>
      <point x="439" y="0" type="line"/>
      <point x="359" y="709" type="line"/>
      <point x="73" y="709" type="line"/>
      <point x="-6" y="0" type="line"/>
      <point x="198" y="0" type="line"/>
      <point x="202" y="144" type="line"/>
    </contour>
    <contour>
      <point x="232" y="293" type="line"/>
      <point x="200" y="293" type="line"/>
      <point x="206" y="437" type="line" smooth="yes"/>
      <point x="208" y="475"/>
      <point x="210" y="512"/>
      <point x="212" y="576" type="curve"/>
      <point x="220" y="576" type="line"/>
      <point x="222" y="513"/>
      <point x="225" y="476"/>
      <point x="226" y="437" type="curve" smooth="yes"/>
    </contour>
    <contour>
      <point x="390" y="835" type="line"/>
      <point x="255" y="835" type="line"/>
      <point x="182" y="737" type="line"/>
      <point x="259" y="737" type="line"/>
    </contour>
  </outline>
</glyph>
<glyph name="Acircumflex" format="1">
  <advance width="432"/>
  <unicode hex="00C2"/>
  <outline>
    <contour>
      <point x="231" y="144" type="line"/>
      <point x="234" y="0" type="line"/>
      <point x="439" y="0" type="line"/>
      <point x="359" y="709" type="line"/>
      <point x="73" y="709" type="line"/>
      <point x="-6" y="0" type="line"/>
      <point x="198" y="0" type="line"/>
      <point x="202" y="144" type="line"/>
    </contour>
    <contour>
      <point x="232" y="293" type="line"/>
      <point x="200" y="293" type="line"/>
      <point x="206" y="437" type="line" smooth="yes"/>
      <point x="208" y="475"/>
      <point x="210" y="512"/>
      <point x="212" y="576" type="curve"/>
      <point x="220" y="576" type="line"/>
      <point x="222" y="513"/>
      <point x="225" y="476"/>
      <point x="226" y="437" type="curve" smooth="yes"/>
    </contour>
    <contour>
      <point x="218" y="783" type="line"/>
      <point x="241" y="736" type="line"/>
      <point x="369" y="736" type="line"/>
      <point x="259" y="834" type="line"/>
      <point x="173" y="834" type="line"/>
      <point x="63" y="736" type="line"/>
      <point x="192" y="736" type="line"/>
      <point x="214" y="783" type="line"/>
    </contour>
  </outline>
</glyph>
<glyph name="Atilde" format="1">
  <advance width="432"/>
  <unicode hex="00C3"/>
  <outline>
    <contour>
      <point x="231" y="144" type="line"/>
      <point x="234" y="0" type="line"/>
      <point x="439" y="0" type="line"/>
      <point x="359" y="709" type="line"/>
      <point x="73" y="709" type="line"/>
      <point x="-6" y="0" type="line"/>
      <point x="198" y="0" type="line"/>
      <point x="202" y="144" type="line"/>
    </contour>
    <contour>
      <point x="232" y="293" type="line"/>
      <point x="200" y="293" type="line"/>
      <point x="206" y="437" type="line" smooth="yes"/>
      <point x="208" y="475"/>
      <point x="210" y="512"/>
      <point x="212" y="576" type="curve"/>
      <point x="220" y="576" type="line"/>
      <point x="222" y="513"/>
      <point x="225" y="476"/>
      <point x="226" y="437" type="curve" smooth="yes"/>
    </contour>
    <contour>
      <point x="283" y="864" type="line"/>
      <point x="278" y="833"/>
      <point x="269" y="825"/>
      <point x="258" y="825" type="curve" smooth="yes"/>
      <point x="251" y="825"/>
      <point x="245" y="827"/>
      <point x="233" y="837" type="curve" smooth="yes"/>
      <point x="226" y="844" type="line" smooth="yes"/>
      <point x="215" y="854"/>
      <point x="193" y="865"/>
      <point x="168" y="865" type="curve" smooth="yes"/>
      <point x="106" y="865"/>
      <point x="84" y="813"/>
      <point x="82" y="762" type="curve"/>
      <point x="152" y="737" type="line"/>
      <point x="156" y="768"/>
      <point x="166" y="775"/>
      <point x="178" y="775" type="curve" smooth="yes"/>
      <point x="184" y="775"/>
      <point x="190" y="773"/>
      <point x="202" y="763" type="curve" smooth="yes"/>
      <point x="209" y="756" type="line" smooth="yes"/>
      <point x="221" y="746"/>
      <point x="243" y="736"/>
      <point x="267" y="736" type="curve" smooth="yes"/>
      <point x="330" y="736"/>
      <point x="350" y="788"/>
      <point x="353" y="839" type="curve"/>
    </contour>
  </outline>
</glyph>
<glyph name="Adieresis" format="1">
  <advance width="432"/>
  <unicode hex="00C4"/>
  <outline>
    <contour>
      <point x="231" y="144" type="line"/>
      <point x="234" y="0" type="line"/>
      <point x="439" y="0" type="line"/>
      <point x="359" y="709" type="line"/>
      <point x="73" y="709" type="line"/>
      <point x="-6" y="0" type="line"/>
      <point x="198" y="0" type="line"/>
      <point x="202" y="144" type="line"/>
    </contour>
    <contour>
      <point x="232" y="293" type="line"/>
      <point x="200" y="293" type="line"/>
      <point x="206" y="437" type="line" smooth="yes"/>
      <point x="208" y="475"/>
      <point x="210" y="512"/>
      <point x="212" y="576" type="curve"/>
      <point x="220" y="576" type="line"/>
      <point x="222" y="513"/>
      <point x="225" y="476"/>
      <point x="226" y="437" type="curve" smooth="yes"/>
    </contour>
    <contour>
      <point x="85" y="835" type="line"/>
      <point x="85" y="739" type="line"/>
      <point x="186" y="739" type="line"/>
      <point x="186" y="835" type="line"/>
    </contour>
    <contour>
      <point x="246" y="835" type="line"/>
      <point x="246" y="739" type="line"/>
      <point x="348" y="739" type="line"/>
      <point x="348" y="835" type="line"/>
    </contour>
  </outline>
</glyph>
<glyph name="Aring" format="1">
  <advance width="432"/>
  <unicode hex="00C5"/>
  <outline>
    <contour>
      <point x="231" y="144" type="line"/>
      <point x="234" y="0" type="line"/>
      <point x="439" y="0" type="line"/>
      <point x="359" y="709" type="line"/>
      <point x="73" y="709" type="line"/>
      <point x="-6" y="0" type="line"/>
      <point x="198" y="0" type="line"/>
      <point x="202" y="144" type="line"/>
    </contour>
    <contour>
      <point x="232" y="293" type="line"/>
      <point x="200" y="293" type="line"/>
      <point x="206" y="437" type="line" smooth="yes"/>
      <point x="208" y="475"/>
      <point x="210" y="512"/>
      <point x="212" y="576" type="curve"/>
      <point x="220" y="576" type="line"/>
      <point x="222" y="513"/>
      <point x="225" y="476"/>
      <point x="226" y="437" type="curve" smooth="yes"/>
    </contour>
    <contour>
      <point x="216" y="728" type="line"/>
      <point x="272" y="728"/>
      <point x="318" y="767"/>
      <point x="318" y="820" type="curve" smooth="yes"/>
      <point x="318" y="874"/>
      <point x="272" y="913"/>
      <point x="216" y="913" type="curve" smooth="yes"/>
      <point x="160" y="913"/>
      <point x="114" y="874"/>
      <point x="114" y="820" type="curve" smooth="yes"/>
      <point x="114" y="767"/>
      <point x="160" y="728"/>
      <point x="215" y="728" type="curve"/>
    </contour>
    <contour>
      <point x="216" y="777" type="line"/>
      <point x="194" y="777"/>
      <point x="176" y="796"/>
      <point x="176" y="820" type="curve" smooth="yes"/>
      <point x="176" y="844"/>
      <point x="194" y="863"/>
      <point x="216" y="863" type="curve" smooth="yes"/>
      <point x="239" y="863"/>
      <point x="256" y="844"/>
      <point x="256" y="820" type="curve" smooth="yes"/>
      <point x="256" y="796"/>
      <point x="239" y="777"/>
      <point x="217" y="777" type="curve"/>
    </contour>
  </outline>
</glyph>
<glyph name="Ccedilla" format="1">
  <advance width="446"/>
  <unicode hex="00C7"/>
  <outline>
    <contour>
      <point x="242" y="287" type="line"/>
      <point x="243" y="162"/>
      <point x="246" y="135"/>
      <point x="236" y="135" type="curve" smooth="yes"/>
      <point x="227" y="135"/>
      <point x="230" y="187"/>
      <point x="230" y="352" type="curve" smooth="yes"/>
      <point x="230" y="523"/>
      <point x="230" y="574"/>
      <point x="236" y="574" type="curve" smooth="yes"/>
      <point x="245" y="574"/>
      <point x="242" y="544"/>
      <point x="241" y="428" type="curve"/>
      <point x="435" y="426" type="line"/>
      <point x="438" y="682"/>
      <point x="320" y="723"/>
      <point x="238" y="723" type="curve" smooth="yes"/>
      <point x="165" y="723"/>
      <point x="117" y="698"/>
      <point x="83" y="658" type="curve" smooth="yes"/>
      <point x="30" y="597"/>
      <point x="13" y="497"/>
      <point x="13" y="366" type="curve" smooth="yes"/>
      <point x="13" y="196"/>
      <point x="41" y="101"/>
      <point x="87" y="47" type="curve" smooth="yes"/>
      <point x="113" y="15"/>
      <point x="149" y="-2"/>
      <point x="188" y="-10" type="curve"/>
      <point x="165" y="-52" type="line"/>
      <point x="186" y="-72" type="line"/>
      <point x="201" y="-67"/>
      <point x="223" y="-75"/>
      <point x="223" y="-93" type="curve" smooth="yes"/>
      <point x="223" y="-109"/>
      <point x="208" y="-116"/>
      <point x="194" y="-116" type="curve" smooth="yes"/>
      <point x="174" y="-116"/>
      <point x="157" y="-103"/>
      <point x="145" y="-96" type="curve"/>
      <point x="110" y="-154" type="line"/>
      <point x="144" y="-179"/>
      <point x="177" y="-191"/>
      <point x="241" y="-191" type="curve" smooth="yes"/>
      <point x="309" y="-191"/>
      <point x="361" y="-166"/>
      <point x="361" y="-104" type="curve" smooth="yes"/>
      <point x="361" y="-61"/>
      <point x="328" y="-35"/>
      <point x="280" y="-35" type="curve"/>
      <point x="294" y="-7" type="line"/>
      <point x="367" y="15"/>
      <point x="443" y="87"/>
      <point x="440" y="289" type="curve"/>
    </contour>
  </outline>
</glyph>
<glyph name="endash" format="1">
  <advance width="330"/>
  <unicode hex="2013"/>
  <outline>
    <contour>
      <point x="11" y="347" type="line"/>
      <point x="11" y="150" type="line"/>
      <point x="319" y="150" type="line"/>
      <point x="319" y="347" type="line"/>
    </contour>
  </outline>
</glyph>
<glyph name="emdash" format="1">
  <advance width="661"/>
  <unicode hex="2014"/>
  <outline>
    <contour>
      <point x="12" y="347" type="line"/>
      <point x="12" y="150" type="line"/>
      <point x="649" y="150" type="line"/>
      <point x="649" y="347" type="line"/>
    </contour>
  </outline>
</glyph>
<glyph name="bullet" format="1">
  <advance width="308"/>
  <unicode hex="2022"/>
  <outline>
    <contour>
      <point x="154" y="488" type="line"/>
      <point x="72" y="488"/>
      <point x="7" y="422"/>
      <point x="7" y="341" type="curve" smooth="yes"/>
      <point x="7" y="260"/>
      <point x="72" y="194"/>
      <point x="154" y="194" type="curve" smooth="yes"/>
      <point x="235" y="194"/>
      <point x="300" y="260"/>
      <point x="300" y="341" type="curve" smooth="yes"/>
      <point x="300" y="422"/>
      <point x="235" y="488"/>
      <point x="155" y="488" type="curve"/>
    </contour>
  </outline>
</glyph>
<glyph name="trademark" format="1">
  <advance width="683"/>
  <unicode hex="2122"/>
  <outline>
    <contour>
      <point x="219" y="709" type="line"/>
      <point x="3" y="709" type="line"/>
      <point x="3" y="619" type="line"/>
      <point x="41" y="619" type="line"/>
      <point x="41" y="353" type="line"/>
      <point x="180" y="353" type="line"/>
      <point x="180" y="619" type="line"/>
      <point x="219" y="619" type="line"/>
    </contour>
    <contour>
      <point x="446" y="528" type="line"/>
      <point x="444" y="574"/>
      <point x="442" y="605"/>
      <point x="440" y="632" type="curve" smooth="yes"/>
      <point x="436" y="709" type="line"/>
      <point x="227" y="709" type="line"/>
      <point x="227" y="353" type="line"/>
      <point x="353" y="353" type="line"/>
      <point x="353" y="454" type="line" smooth="yes"/>
      <point x="353" y="487"/>
      <point x="352" y="522"/>
      <point x="352" y="574" type="curve"/>
      <point x="356" y="574" type="line"/>
      <point x="358" y="522"/>
      <point x="360" y="488"/>
      <point x="362" y="454" type="curve" smooth="yes"/>
      <point x="368" y="353" type="line"/>
      <point x="515" y="353" type="line"/>
      <point x="522" y="454" type="line" smooth="yes"/>
      <point x="524" y="487"/>
      <point x="527" y="522"/>
      <point x="529" y="574" type="curve"/>
      <point x="533" y="574" type="line"/>
      <point x="533" y="522"/>
      <point x="532" y="488"/>
      <point x="532" y="454" type="curve" smooth="yes"/>
      <point x="532" y="353" type="line"/>
      <point x="657" y="353" type="line"/>
      <point x="657" y="709" type="line"/>
      <point x="458" y="709" type="line"/>
      <point x="453" y="632" type="line" smooth="yes"/>
      <point x="452" y="606"/>
      <point x="450" y="574"/>
      <point x="448" y="528" type="curve"/>
    </contour>
  </outline>
</glyph>
